<?xml version="1.0" encoding="UTF-8" standalone="no"?>
<svg xmlns:rdf="http://www.w3.org/1999/02/22-rdf-syntax-ns#" xmlns="http://www.w3.org/2000/svg" height="567" viewBox="0 0 938 567" width="938" version="1.1" xmlns:cc="http://creativecommons.org/ns#" xmlns:dc="http://purl.org/dc/elements/1.1/">
<path d="m474.5 565.97c-2.2-0.44398-5.2668-1.2947-6.8151-1.8904-1.5483-0.59576-5.1483-1.103-8-1.1271s-6.9849-0.73149-9.1849-1.5719c-2.2-0.8404-5.846-2.1291-8.1023-2.8638-8.488-2.7639-27.696-12.109-32.898-16.006-11.091-8.3086-33.217-36.824-40.956-52.784-1.5387-3.1732-3.1905-6.0122-3.6708-6.309-0.48025-0.29681-0.88233-1.3006-0.8935-2.2306-0.0112-0.93004-1.5562-5.741-3.4333-10.691l-3.413-9-6.8167 0.10952c-3.7492 0.0602-9.0164 0.62077-11.705 1.2456-3.8841 0.90271-7.1708 0.81149-16-0.44409-6.1115-0.8691-17.862-1.9348-26.112-2.3683-16.222-0.85234-19.049-1.5614-24.177-6.0637-1.848-1.6226-4.5892-3.2182-6.0916-3.5458-1.5024-0.32766-3.8567-0.97428-5.2317-1.4369-1.375-0.46267-6.55-2.0268-11.5-3.4759s-17.775-5.5598-28.5-9.1351c-10.725-3.5752-20.22-6.7344-21.1-7.0204-1.0912-0.35452-2.7721 1.1108-5.2824 4.605-54.54 75.91-175.19 40.49-190.61-55.97-0.6599-4.12-1.6697-9.98-2.2445-13-6.7205-35.37 7.5854-78.58 36.148-109.19 5.509-5.9 17.744-15.81 19.524-15.81 0.31871 0 2.3704-1.2973 4.5592-2.8829 15.8-11.445 63.452-19.297 79.503-13.099 1.6499 0.63704 6.7266 2.2458 11.282 3.575 24.965 7.2851 50.026 27.307 60.805 48.578 2.7308 5.3889 4.9667 5.5911 3.9854 0.36046-0.33431-1.782-0.61612-16.243-0.62624-32.135-0.0101-15.892-0.47554-37.895-1.0343-48.895-0.55873-11-1.1773-24.05-1.3746-29-0.19892-4.9916-1.129-11.227-2.0883-14-8.6646-25.047 19.579-63.941 49.552-68.237 4.9057-0.70316 5.52-1.0571 5.6849-3.2755 0.10168-1.3679 0.50878-3.5651 0.90466-4.8825l0.71979-2.3954-7.0392 0.50365c-8.7444 0.62566-13.579-1.0156-13.092-4.4448 0.30273-2.1329 0.84094-2.2852 9.0315-2.5564 4.7903-0.15859 9.8784-0.8947 11.307-1.6358 3.357-1.7417 19.251-0.96101 21.572 1.0596 0.9582 0.83401 4.1338 1.4307 8 1.5032 6.91 0.134 10.91 1.852 10.91 4.685 0 1.6023-0.91555 1.7331-9.5 1.3577-8.2599-0.36126-9.5-0.20412-9.5 1.2038 0 0.8906 0.5625 1.6058 1.25 1.5893 0.6875-0.01647 48.307 0.09603 105.82 0.25 96.427 0.25815 104.7 0.15036 106.24-1.3841 0.91535-0.91521 4.0026-2.1655 6.8606-2.7784 2.858-0.61293 5.677-1.5118 6.2646-1.9974 8.5379-7.0578 32.42-9.7789 48.568-5.5338 5.225 1.3736 10.146 2.6046 10.935 2.7356 1.3847 0.22981 1.9618-1.2614 3.9714-10.262 0.83088-3.7215 2.15-2.2889 3.223 3.5 1.1052 5.9634 22.665 8.6433 29.621 3.6819 3.4341-2.4494 3.8997-2.2644 2.2166 0.88057-3.0929 5.7792-19.601 8.1809-26.58 3.8672-1.8424-1.1387-3.808-1.7871-4.368-1.441-2.0586 1.2722-0.92099 3.5206 2.7318 5.3994 2.0625 1.0608 5.0544 3.3019 6.6488 4.9803 2.063 2.1718 4.492 3.3823 8.4251 4.1988 3.0395 0.631 9.1601 2.7246 13.601 4.6524 4.4412 1.9278 9.0651 3.4614 10.275 3.408 1.2102-0.05337 2.4743 0.34608 2.809 0.88766 1.3764 2.2271 3.4905 0.93228 3.4905-2.1377 0-2.6841-0.21396-2.9449-1.5242-1.8575-2.2606 1.8761-2.4148 0.99269-0.73551-4.2118 1.7603-5.4555 4.8474-7.7607 3.7595-2.8072-0.36 1.65-0.25 3 0.25 3 0.50145 0 0.70735 2.4645 0.45757 5.4766-0.4429 5.3408-0.37291 5.5205 2.8225 7.25 1.8022 0.97539 7.4613 4.5859 12.576 8.0234 11.264 7.5704 10.819 7.5427 10.005 0.62257-1.6818-14.309-9.1425-23.682-24.886-31.265l-8.7725-4.2251-4.1575 3.5587c-2.28 1.957-4.77 3.558-5.52 3.558-0.75331 0-2.5848 0.62179-4.07 1.3818-3.74 1.916-11.2 3.077-11.2 1.744 0-0.57714 1.9125-1.5571 4.25-2.1776 12.02-3.191 21.3-12.757 16.356-16.861-1.0804-0.89666-1.7851-0.76596-3.1319 0.58092-1.6505 1.6505-1.701 1.6216-1.0038-0.5749 0.40373-1.272 0.70508-4.7385 0.66966-7.7034-0.04-2.964 0.3-5.39 0.74-5.39 0.95 0 3.12 4.502 3.12 6.47 0 0.75692 1.125 2.7132 2.5 4.3473s2.5 3.6568 2.5 4.4948c0 0.93398 4.0454 3.5494 10.452 6.7573 11.43 5.7231 20.112 12.294 24.159 18.285l2.6041 3.8549 26.143-0.85494c50.85-1.663 58.058-0.39 73.903 13.053 15.899 13.488 20.042 29.269 12.162 46.328-3.7938 8.2134-3.9731 11.115-0.25406 4.1112 3.806-7.1672 4.0823-8.0263 5.2582-16.347 2.1983-15.555-5.4965-31.043-19.964-40.183-5.8458-3.6931-5.934-5.5979-0.21286-4.598 4.4951 0.78565 6.5942 0.84039 19.025 0.49614 7.1681-0.19851 7.8452-0.4005 8.6771-2.5886 2.48-6.509 17.1-2.599 31.32 8.374 3.84 2.97 11.73 13.5 11.73 15.67 0 0.37218 0.59774 1.3871 1.3283 2.2554 3.9102 4.6473 7.0984 22.625 6.4426 36.329-0.51923 10.85-0.47797 10.924 3.7006 6.6674 11.223-11.433 38.733-15.253 57.757-8.0205 6.3228 2.4039 24.771 24.115 24.771 29.152 0 0.53795 0.3975 1.7595 0.88333 2.7145 22.403 44.039 2.0313 129.27-35.15 147.06-29.109 13.927-56.419 3.1738-72.476-28.538-2.9358-5.798-3.2961-5.8655-11.867-2.2227-27.547 11.708-55.9 17.193-67.603 13.079-30.621-10.764-58.93-2.2122-75.818 22.904-7.3806 10.977-9.146 12.199-21.47 14.861-5.5 1.1884-11.575 2.561-13.5 3.0503-1.925 0.48928-7.55 1.8397-12.5 3.001-4.95 1.1612-11.545 2.8578-14.655 3.7702l-5.6549 1.6588-0.53032 21.557c-0.53367 21.693-0.77418 24.041-4.6158 45.057-3.3184 18.153-6.0297 27.813-10.526 37.5-2.2976 4.95-5.2159 12.15-6.4852 16-6.6238 20.091-7.707 22.26-17.73 35.5-6.8944 9.1073-25.433 27.547-31.303 31.137-23.821 14.567-37.282 18.706-51.5 15.837zm25.035-7.6187c13.994-5.6897 31.611-18.269 29.369-20.97-0.86978-1.048-0.84668-1.749 0.0951-2.8837 1.477-1.7797-0.0315-6.3151-2.9914-8.9938-2.4779-2.2425-3.5614-0.25769-1.9642 3.5983 0.92169 2.2252 0.9558 3.6003 0.13403 5.4039-0.69531 1.526-0.74599 2.6394-0.13728 3.0156 1.0321 0.63787-0.53546 4.4776-1.8256 4.4718-0.39315-0.002-0.7874-2.988-0.87612-6.6362-0.2627-10.803-6.2732-11.342-6.4128-0.57543-0.1217 9.3824-1.1812 14.309-2.8532 13.267-1.1958-0.74502-1.233-1.7578-0.22936-6.2425 1.8206-8.1355 0.70068-12.168-3.1646-11.395-3.8806 0.77613-4.0616 1.0018-2.7571 3.4393 4.3604 8.1476 4.0579 18.674-0.45185 15.719l-2.6329-1.7252 0.33159 2.7393c0.18907 1.5619-0.20545 2.92-0.91788 3.1597-2.5106 0.84475-2.4079-2.908 0.23227-8.4842 4.0276-8.5064 2.8505-13.629-3.2328-14.069-2.895-0.20946-4.25 0.0906-4.25 0.94113 0 0.76936-0.4798 0.60468-1.25-0.42903-0.6875-0.92271-2.7755-1.9776-4.64-2.3441l-3.39-0.66647 0.62955 3.403c0.34625 1.8716 0.22292 4.753-0.27406 6.403-0.80444 2.6708-0.91471 2.3964-1.0049-2.5-0.11326-6.1517-0.55713-7.1665-3.9063-8.9313-2.8551-1.5044-3.1719-1.2237-3.734 3.3083-0.24458 1.972-1.3156 5.795-2.3801 8.4956-1.9272 4.8893-1.9269 4.908 0.0589 4.3886 1.755-0.45894 1.9112-0.1759 1.3016 2.3586l-0.7 2.89 2.567-2.3548c4.0606-3.7248 5.2541-1.6137 1.656 2.9293-3.0511 3.8523-5.6778 5.2879-4.6169 2.5233 0.74402-1.9389-0.37115-2.8036-1.9383-1.503-0.71472 0.59317-1.8797 0.7155-2.592 0.27217-0.71159-0.44288-2.3063-0.67441-3.5438-0.51452-3.3317 0.43047-3.1048-3.5998 0.25-4.4418 1.375-0.3451 2.5-1.1839 2.5-1.8641 0-0.68013 0.87332-2.027 1.9407-2.9929 2.1136-1.9128 3.715-10.805 2.685-14.909-0.47923-1.9094-7.1257-6.3258-7.1257-4.7348 0 0.19779-1.5342-1.0736-3.4094-2.8253-5.33-4.98-7.1-5.66-7.1-2.75 0 5.702-1.4876 8.9938-6.4225 14.212-2.8334 2.9963-5.8099 5.4409-6.6146 5.4324-1.1601-0.0122-1.1922-0.18702-0.15494-0.84486 0.84074-0.53321 1.0747-1.759 0.65495-3.4315-0.57927-2.308-0.28366-2.6976 2.6168-3.4492 6.0637-1.5713 9.61-12.211 5.9954-17.988-2.2098-3.5318-4.1572-3.5194-5.8882 0.0375-0.85069 1.748-0.94913 1.2234-0.48628-2.5918 0.51287-4.2275 0.24269-5.2154-2.3246-8.5-11.548-14.775-18.925-33.756-25.347-65.217-6.9831-34.21 0.45828-81.649 17.469-111.37 2.4762-4.3258 4.5023-8.086 4.5023-8.3561 0-0.82717 6.1913-8.519 10.768-13.378 2.3825-2.5293 4.9674-5.5061 5.7442-6.6152 8.04-11.46 34.93-23.27 53.01-23.27h7.3886l3.2321-4.6977c1.8066-2.6258 3.419-4.1372 3.6557-3.4269 0.23298 0.69896-0.75519 2.9254-2.196 4.9477-5.0222 7.0493 3.6419 8.9768 9.7852 2.1769 1.9876-2.2 3.8399-4 4.1164-4 1.2534 0 0.23111 1.9572-2.9842 5.7136l-3.4869 4.0736 2.4517 1.6064c3.2154 2.1068 3.696 2.0489 7.0735-0.85329 3.5409-3.0426 4.1291-2.6108 2.069 1.5188-1.8911 3.7908-1.6046 4.403 3.1975 6.8319 3.782 1.913 5.4093 1.615 8.9614-1.641 0.75001-0.6875 1.894-1.2478 2.5422-1.2452 0.64821 0.003-0.52779 1.572-2.6134 3.4874-4.0037 3.6772-4.0257 5.0473-0.1432 8.9298 2.0501 2.0501 2.4431 2.0022 5.528-0.67324 5.3721-4.6592 6.4661-10.081 2.4071-11.931-1.375-0.6265-2.5-1.9118-2.5-2.8561 0-2.1684-1.4698-3.2721-6.5-4.8812-3.3166-1.0609-4.4299-2.1426-6.5163-6.3314-1.384-2.7786-3.409-5.5464-4.5-6.1507-1.091-0.60429-2.2751-1.5007-2.6313-1.9921-0.35621-0.49137-1.5937-0.646-2.75-0.34362s-2.1024 0.17644-2.1024-0.27987c0-2.5995-5.2326-6.7441-9.2212-7.3039-2.3533-0.33029-5.7413-0.89949-7.5288-1.2649-2.6059-0.53267-3.25-0.34228-3.25 0.96066 0 2.0604-0.22873 2.0423-4.7388-0.375-2.0524-1.1-5.2007-2-6.9964-2-3.4725 0-4.3696 1.3621-1.5976 2.4258 1.1261 0.43211 1.3383 0.96868 0.65392 1.6531-0.6844 0.6844-2.6508 0.36786-6.0581-0.97519-2.7747-1.0937-5.2253-1.808-5.4459-1.5874-0.22059 0.22058-3.7572 0.90275-7.8591 1.5159-16.776 2.5078-41.217 19.096-55.538 37.694-2.1559 2.7998-5.7796 7.4942-8.0528 10.432-6.8758 8.8863-17.204 30.227-22.237 45.947-9.7384 30.416-9.2617 81.74 1.0764 115.89 5.6108 18.537 7.5347 23.616 14.005 36.973 10.39 21.48 34.13 53.04 39.88 53.04 0.39135 0 3.3984 1.5187 6.6824 3.3749 15.467 8.7422 27.275 9.8678 41.756 3.98zm-6.1855-3.8868c-0.56846-1.4814-0.25568-3.318 1.1441-6.7182 0.49078-1.1922 0.25935-1.75-0.72604-1.75-1.4869 0-3.7675 3.9632-3.7675 6.547 0 1.5068-1.1927 1.9269-2.307 0.81263-0.67889-0.67889 2.2732-6.6238 3.5748-7.199 2.1776-0.9622 3.7354-3.646 3.7626-6.4821 0.0454-4.7473 1.7069-1.2266 2.0394 4.3214 0.56234 9.3846-1.6968 15.741-3.7203 10.468zm-12.35-1.4c0-1.94 4.25-8.06 5.6-8.06 1.9553 0 1.786 0.63643-1.3488 5.0689-2.681 3.7909-4.25 4.8941-4.25 2.9883zm-25-10.851c0-0.43667 1.7466-2.449 3.8813-4.4719 2.4086-2.2824 4.3814-5.3717 5.1994-8.1419 1.5971-5.409 2.7847-5.2154 1.9932 0.32482-0.83 5.87-11.07 17.22-11.07 12.29zm-16.416-14.299c2.106-2.3271 5.358-4.2989 6.0118-3.6451 0.81247 0.81247-4.512 5.7378-6.2028 5.7378-1.5428 0-1.5248-0.19658 0.19106-2.0926zm-8.58-9.34c0-0.78754 1.35-2.3932 3-3.5681 3.6604-2.6065 3.9503-1.0412 0.45455 2.4546-2.9277 2.9277-3.4546 3.0975-3.4546 1.1135zm-9-8.9679c0-0.78843 0.5625-1.6618 1.25-1.9407 0.9459-0.38381 0.89213-0.75577-0.22104-1.529-0.80907-0.56196-1.1505-1.3423-0.75868-1.7341 0.3918-0.3918 0.22753-1.2966-0.36505-2.0106-1.31-1.58-0.37-3.39 1.76-3.39 0.90288 0 1.328 0.57323 1.0201 1.3755-0.53478 1.3936 3.0726 3.6245 5.8609 3.6245 2.927 0 1.3266 2.0304-3.547 4.5-3.8297 1.9407-5 2.1982-5 1.1002zm-4-11.429c0-1.2357 9.5672-5.4836 11.141-4.9465 0.76388 0.26073-0.9258 1.6273-3.8575 3.1198-5.43 2.77-7.28 3.23-7.28 1.83zm-3-4.5543c0-1.4287 2.9995-2.6105 6.5-2.5611 1.4984 0.0212 1.1223 0.50879-1.5 1.9444-4.2346 2.3184-5 2.4127-5 0.61663zm-16-44.01c0-2.7427 2.7822-4.3381 3.6448-2.0901 0.81 2.1-0.31 4.48-2.11 4.48-0.95 0-1.53-0.91-1.53-2.39zm-3-9.8845c0-1.72 2.87-5.73 4.09-5.73 1.8972 0 2.13 3.1015 0.3782 5.0372-2.02 2.22-4.47 2.6-4.47 0.68zm-1.7732-9.6217c0.30607-3.8084 2.9947-6.2794 4.8326-4.4414 0.81927 0.81927 0.29069 2.0052-1.9957 4.4775l-3.1101 3.3631 0.27317-3.3992zm-0.71363-6.0795c-0.85-1.37 1.21-4.03 3.1-4.03 1.9276 0 1.7152 1.3844-0.52316 3.4102-1.3016 1.178-2.1168 1.3706-2.5861 0.61118zm-1.52-44.56c0-0.84227 0.675-1.7904 1.5-2.107 0.825-0.31659 1.5-1.4009 1.5-2.4096 0-2.3808 1.6239-3.3744 2.3638-1.4463 0.31537 0.82184 1.6 1.497 2.8548 1.5004 2.072 0.006 2.0063 0.1496-0.71639 1.5692-1.6488 0.8597-3.7092 2.2069-4.5787 2.9938-2.03 1.84-2.92 1.81-2.92-0.1zm143.91 146.95c-2.8492-5.5365-5.2644-7.4675-7.0751-5.6568-0.9565 0.9565-0.7481 2.0523 0.97247 5.1137 1.2044 2.143 2.1898 5.6264 2.1898 7.7409v3.8446l3.1676-3.1676 3.1676-3.1676-2.4224-4.7072zm-121.53-1.17c-2.0465-3.7125-4.493-7.875-5.4368-9.25-5.5495-8.0849-19.535-42.395-22.419-55-0.94373-4.125-2.5422-11.1-3.5522-15.5-2.7473-11.969-2.8815-12.904-3.9476-27.5-1.1631-15.923 0.82994-49.741 3.5066-59.5 0.90509-3.3 2.0672-7.8 2.5824-10 1.443-6.1612 3.1061-10.59 7.8863-21 1.7679-3.85 4.0518-9.1162 5.0753-11.703 2.236-5.6502 14.374-24.219 20.654-31.595 2.4807-2.914 4.2856-5.5229 4.011-5.7976-1.4916-1.4916-18.138 19.959-22.099 28.478-1.1812 2.5399-3.0993 6.193-4.2625 8.118-17.636 29.187-25.607 81.578-18.408 121 1.0545 5.775 2.6826 14.775 3.618 20 1.5742 8.7935 7.2269 26.759 9.2416 29.371 0.47878 0.62083 2.3359 4.7288 4.127 9.1288 5.6116 13.786 11.199 23.514 19.383 33.75 4.2696 5.34 4.2785 4.6879 0.0406-3zm127.62 2.76c0-0.54575 1.3353-2.1821 2.9674-3.6363 5.0691-4.5166 5.7673-8.6507 2.3832-14.111-3.5527-5.7329-4.4585-6.0404-6.6859-2.2696-0.97779 1.6553-1.3536 3.0096-0.83521 3.0096 1.275 0 4.1705 6.265 4.1705 9.0236 0 1.8611-0.24323 2.0195-1.5 0.97643-0.825-0.68469-1.5-1.6556-1.5-2.1576 0-3.1882-3.2893-5.8905-5.136-4.2193-2.4204 2.1904-2.3573 2.8637 0.63595 6.7881 1.375 1.8027 2.5 4.2477 2.5 5.4333 0 1.2494 0.63057 2.1556 1.5 2.1556 0.825 0 1.5-0.44653 1.5-0.99229zm-26.684-6.6054c14.5-5.47 28.59-24.92 40.1-55.4 2.598-6.875 5.3738-14.075 6.1683-16 0.79454-1.925 2.0653-6.5058 2.824-10.18 0.75863-3.6738 1.6143-7.0598 1.9016-7.5246 7.2905-11.796 7.1595-74.147-0.21287-101.35-5.2047-19.203-6.0027-20.959-13.835-30.448-0.45396-0.55-2.14-2.843-3.7468-5.0956s-4.2942-5.0748-5.972-6.2716-4.8506-3.4805-7.0506-5.075-5.8-3.4316-8-4.0826c-2.2-0.65093-5.0337-1.5866-6.297-2.0794-13.808-5.385-41.317 3.6263-55.947 18.327-52.657 52.911-53.011 161.12-0.68776 210.28 14.852 13.954 36.445 20.295 50.748 14.902zm-24.82-5.81c-44.74-11.1-74.91-96.3-55.81-157.59 10.084-32.36 22.275-50.521 43.285-64.478 27.327-18.154 71.016-6.3527 79.51 21.478 0.41965 1.375 1.0979 2.95 1.5071 3.5 13.836 18.594 12.631 98.377-2.0232 134-0.45251 1.1-1.7216 4.7-2.8202 8-13.947 41.893-36.87 61.734-63.646 55.089zm-1.3106-15.378c1.311-1.311-4.4096-14.29-6.156-13.967-1.521 0.28122-4.8652 9.4589-4.9722 13.646-0.0628 2.4562 8.7392 2.7104 11.128 0.32135zm-15.725-3.794c-0.15162-3.8654-3.8906-16.441-4.7983-16.139-0.61209 0.20403-1.7518 2.4283-2.5327 4.9429l-1.4198 4.5719 3.3934 4.0842c3.101 3.7323 5.4479 4.8448 5.3574 2.5396zm24.275-1.6667c2.5753-2.7756 2.8704-4.198 1.8929-9.1231-1.43-7.23-4.63-10.18-4.63-4.28 0 1.8429-0.41145 4.6554-0.91434 6.25-2.8894 9.1618-1.2289 12.411 3.6534 7.1492zm-22.319-14.755c0.21149-10.885-0.41905-12.826-2.5194-7.7554-1.4724 3.5548-1.3954 6.9004 0.32224 13.992 1.585 6.5442 1.9701 5.4512 2.1972-6.2367zm11.216 1.4878c-1.1651-3.2662-1.5558-3.6518-2.1703-2.1424-0.4601 1.1303-0.048 3.2532 1.0678 5.5 2.2864 4.604 3.0802 2.1864 1.1025-3.3576zm6.3213-6.2076c1.775-10.555-0.98753-18.612-3.7563-10.955-1.5116 4.1804-1.5205 8.7541-0.0312 16.17 1.3473 6.7086 1.9136 5.9288 3.7875-5.215zm15.303 5.7293c3.0885-4.7174 4.4296-11.847 2.8009-14.891-1.0704-2.0001-4.0107-2.9774-4.1051-1.3644-0.19382 3.3103-1.8724 15.295-2.4512 17.5-1.0434 3.976 0.71994 3.3914 3.7555-1.245zm-29.08-4.3441c-0.87497-1.8086-1.0435-1.3459-1.0341 2.8391 0.0104 4.6124 0.0914 4.7799 1.0454 2.1609 0.71473-1.9623 0.71126-3.5065-0.0113-5zm-17.72-6.5339c-0.68181-0.6818-5.6276 2.1454-6.1544 3.518-0.2485 0.6476 0.81849 3.099 2.3711 5.4477l2.8229 4.2702 0.71182-6.3863c0.39151-3.5125 0.50333-6.5948 0.2485-6.8496zm40.83 1.11c-0.28263-1.2446 0.0125-2.8972 0.65575-3.6723 2.0979-2.5278 0.88592-10.615-1.8632-12.432l-2.4169-1.5979 0.63229 5.3386c0.34775 2.9362 1.1886 6.0785 1.8686 6.9828 1.041 1.3844 1.0149 1.4466-0.16543 0.39412-4.4948-4.0082-4.6831 4.6447-0.32093 14.75 0.85307 1.9762 2.2927-6.7553 1.6097-9.763zm-35.473-4.5478c-1.6639-3.1604-3.3068-1.2249-3.6247 4.2702-0.47369 8.1865 0.77651 9.528 2.8338 3.0406 1.2043-3.7976 1.4491-6.0605 0.79088-7.3108zm16.39 2.693c0.12-4.13-1.11-7.39-2.78-7.39-1.01 0-1.43 1.2-1.43 4.07 0 7.4647 4.0006 10.618 4.2082 3.3165zm36.477-8.8866c1.1464-3.3114 1.1356-4.1036-0.0729-5.312-2.28-2.28-3.62-0.45-3.62 4.95 0 5.9985 1.6751 6.1591 3.6851 0.3533zm-6.69-2.86c0-4.76-1.18-7.64-3.14-7.64-1.7561 0-2.0925 8.9981-0.43115 11.534 2.3338 3.5618 3.5699 2.2139 3.5699-3.8927zm-36.131-1.983c0.61257-0.7381 0.81767-1.6381 0.45578-2-1.21-1.2-5.33-0.68-5.33 0.67 0 2.8101 2.9663 3.6172 4.8689 1.3247zm28.485-5.4143c-0.62194-2.3783-3.2359-3.7613-4.576-2.4211-1.334 1.334 0.17405 6.0167 2.0672 6.4188 2.1148 0.44914 3.2138-1.302 2.5089-3.9977zm16.388 0.5348c0.18409-2.4439-2.5017-6.0449-3.8754-5.1959-1.5295 0.9453-0.92454 5.2841 0.88365 6.3373 2.5028 1.4578 2.8046 1.3426 2.9917-1.1414zm-39.99-3.03c2.6122-3.265 2.4528-5.7221-0.43803-6.7561-1.5494-0.5542-3.9888-1.6661-5.4209-2.4709-2.4076-1.3531-2.7654-1.2912-4.75 0.8213-3.7422 3.9834-2.2108 8.7044 2.1037 6.4854 1.2764-0.65647 1.75-0.50713 1.75 0.55179 0 2.5112 5.0263 3.5295 6.7552 1.3685zm8.6789-1.9593c1.7238-2.4611 0.77996-4.1713-2.0059-3.6345-2.608 0.50249-3.8862 5.8438-1.3984 5.8438 1.0212 0 2.5532-0.99417 3.4042-2.2093zm23.56 0.91c0-0.715-0.54-1.84-1.2-2.5-1.5893-1.5893-3.8-1.5311-3.8 0.1 0 1.6723 2.0277 3.7 3.7 3.7 0.715 0 1.3-0.585 1.3-1.3zm7.8069-8.0442c-0.47971-6.4951 2.521-5.7144 3.245 0.84421 0.62543 5.6657 0.87654 5.3267 4.4355-5.9879 2.76-8.78 3.01-10.52 1.51-10.52-0.55 0-1 0.3966-1 0.88134 0 2.0279-6.4954 7.1187-9.0828 7.1187-3.0497 0-4.7724 2.7346-2.3164 3.677 0.86185 0.33072 1.1399 0.87618 0.61793 1.2121-1.934 1.2448-2.3087 4.8779-0.67195 6.5147 2.376 2.376 3.608 0.95978 3.2603-3.748zm-24.364 2.1217c1.63-2.35 2.09-5.78 0.77-5.78-0.95 0-4.22 5.36-4.22 6.9 0 1.8201 1.7893 1.2346 3.4433-1.1268zm-29.758-1.9518c4.4576-4.1877 0.79392-11.68-4.1329-8.4521-3.744 2.4532-4.0472 4.0385-1.4452 7.5578 2.7037 3.6569 2.6471 3.6478 5.5782 0.8943zm22.801-2.4546c0.89592-0.89592 1.3781-2.2827 1.0714-3.0818-0.30663-0.79906-0.57248-2.4285-0.59078-3.6211l-0.0333-2.1682-1.877 2.25c-2.31 2.75-4.06 2.89-4.06 0.31 0-3.5926 1.8646-6.8721 4.9404-8.6889 3.7034-2.1876 3.7792-2.7273 0.58723-4.1816-5.6024-2.5526-4.515-9.8304 1.9372-12.965 2.4944-1.2119 4.5353-2.7363 4.5353-3.3876 0-0.65134 0.61412-1.8947 1.3647-2.763 3.329-3.8511 2.8016-8.9487-1.1864-11.466-4.81-3.04-11.18-9.43-11.18-11.22 0-1.9938 0.9058-1.7375 3.0036 0.85 2.1232 2.6188 2.5184 2.3903 3.459-2 1.4287-6.6689-11.826-2.6227-16.495 5.0354-2.72 4.46-2.69 10.71 0.06 10.71 4.2801 0 0.68326 15.969-4.135 18.358-4.225 2.0952-3.1566 10.335 2.6259 20.25 4.3593 7.4751 12.361 11.366 15.964 7.7629zm-11.49-34.83c0-2.07 2.16-6.55 3.16-6.55 0.46171 0 0.83948 0.765 0.83948 1.7 0 1.1888 0.31617 1.3838 1.0515 0.64851 1.6379-1.6379 5.9485-0.40171 5.9485 1.7059 0 1.0951-0.69779 1.7928-1.75 1.7499-0.9625-0.0392-2.5375 0.26186-3.5 0.66914-1.0587 0.44799-1.75 0.30322-1.75-0.36648 0-0.61-0.45-1.11-1-1.11s-1 0.675-1 1.5-0.45 1.5-1 1.5-1-0.65383-1-1.453zm25.48 27.847c1.7189-4.114 0.95596-6.7104-1.1326-3.8541-1.2643 1.729-1.9256 7.4604-0.86078 7.4604 0.26762 0 1.1646-1.6228 1.9934-3.6062zm-41.702-0.95047c2.4744-1.7331 2.9827-4.4433 0.83329-4.4433-2.1945 0-6.011 3.5434-5.2109 4.838 0.94961 1.5365 1.7194 1.4671 4.3776-0.39475zm57.757-1.2086c2.3381-1.6605 5.4614-6.6439 5.4021-8.6196l-0.0634-2.1151-0.87186 2.1621c-3.9252 9.7338-12.921 0.14947-13.766-14.666-1.1959-20.975 13.81-31.338 16.407-11.331 0.8019 6.1761 2.2843 9.1224 2.3269 4.6248 0.17324-18.29-13.181-26.632-19.673-12.29-7.516 16.606 0.39173 49.228 10.238 42.235zm-59.29-4.86c1.8877-0.66584 2.3468-2.8971 0.79367-3.857-0.52598-0.32507-0.70283-1.2516-0.39301-2.059 0.38099-0.99283-0.0922-1.468-1.4619-1.468-5.6098 0-7.4845 3.9442-1.9388 4.079 1.7875 0.0434 2.575 0.32884 1.75 0.63427-2.5022 0.92635-4.011 2.4599-3.3974 3.4529 0.31935 0.51672 1.1019 0.69102 1.739 0.38734s1.9459-0.82992 2.9084-1.1694zm0.11287-11.426c1.48-1.34-0.35-2.95-3.36-2.95-3.236 0-4.2971 1.0622-3.399 3.4026 0.61391 1.5998 4.8152 1.3236 6.7619-0.44462zm37.448-2.2163c0.36177-4.3614 0.33976-4.3691-4.8855-1.7033-4.1268 2.1053-4.2828 3.4626-0.57251 4.9803 3.7617 1.5387 5.1266 0.71925 5.458-3.277zm-37.33-6.48c0.3163-2.0625 1.0117-5.132 1.5453-6.821 0.53362-1.689 0.97022-3.5722 0.97022-4.1849 0-0.61264 0.52267-2.3807 1.1615-3.929 0.63882-1.5483 1.0726-3.2013 0.96391-3.6734-0.10867-0.47205 0.94366-2.3545 2.3385-4.1833 2.9776-3.9038 3.0708-4.7127 0.92109-7.9936-2.2225-3.392-4.385-3.1742-4.385 0.44156 0 2.414-0.33879 2.8178-2 2.3834-1.5062-0.39389-2-0.0307-2 1.4712 0 1.0968-0.65295 2.5361-1.451 3.1984-0.79804 0.66232-1.7554 3.3049-2.1274 5.8724-0.37204 2.5675-0.92794 5.0984-1.2354 5.6242-0.30741 0.5258-0.7206 4.2383-0.9182 8.25l-0.35 7.3h3.0003c2.6981 0 3.0582-0.3777 3.5754-3.75zm72.77-24.24c2.42-0.04 0.22-2.01-2.25-2.01-2.0962 0-3 0.48704-3 1.6166 0 1.1885 0.59587 1.457 2.25 1.0137 1.2375-0.33164 2.5875-0.60913 3-0.61664zm-28.43-4.2534c-0.17575-1.2319-1.107-2.3899-2.0696-2.5733-2.006-0.38232-2.3414 1.8217-0.55 3.6131 1.8622 1.8622 2.9708 1.4221 2.6196-1.0398zm29.18-0.2c0-2.2022-1.5818-2.7067-4.4251-1.4112-3.6 1.64-3.2 2.85 0.93 2.85 2.3807 0 3.5-0.46081 3.5-1.441zm-60.7-4.0058c-0.24835-3.3836-2.2446-6.0083-3.5653-4.6876-1.2784 1.2784 1.0862 8.3692 2.6102 7.827 0.63545-0.22605 1.0652-1.6388 0.9551-3.1394zm25.7-0.82c0-1.6326-1.056-2.7902-3.75-4.1109-2.0625-1.011-4.6201-2.2938-5.6836-2.8505-4.5392-2.3763-15.579-0.27553-15.551 2.9592 0.0302 3.498 1.3971 4.4531 4.5677 3.1915 4.383-1.7441 12.475-1.187 15.417 1.0614 3.3626 2.5701 5 2.488 5-0.2507zm9.393 0.69081c0.96-2.5 0.72-3.42-0.89-3.42-0.93333 0-1.5 0.94444-1.5 2.5 0 2.793 1.4588 3.3527 2.393 0.91821zm24.2-5.92c-0.36183-1.4416-0.19606-2.5 0.39159-2.5 0.56048 0 1.019-0.45 1.019-1 0-1.5196-3.7114-1.1944-4.3149 0.37814-0.29086 0.75798-0.024 1.883 0.59301 2.5 0.82915 0.82915 0.69369 1.1219-0.51912 1.1219-0.90254 0-1.9191 0.45-2.259 1-0.36234 0.58627 0.69242 1 2.5494 1 2.8792 0 3.1103-0.22746 2.54-2.5zm-36.569-8.0242c0.69572-0.83829 0.99522-1.7939 0.66557-2.1235-1.0241-1.0241-3.6856 0.50424-3.6856 2.1163 0 1.9586 1.3978 1.962 3.0201 0.007zm-13.807-0.29635c1.133-0.44964 1.4301-1.1382 0.87717-2.033-0.65652-1.0623-1.2993-1.1052-2.9914-0.19959-3.3914 1.815-1.6002 3.7066 2.1142 2.2326zm47.766-1.1457c2.4658-1.5592 2.2464-7.2102-0.26558-6.8383-2.9171 0.43184-3.2194 2.4105-0.50495 3.3042l2.2909 0.75428-2.25 0.4426c-1.2375 0.24343-2.25 1.0863-2.25 1.873 0 1.651 0.88477 1.7888 2.9796 0.4642zm-73.28-7.78c-1.2308-6.1291-2.6183-8.4005-4.9292-8.0693-5.921 0.84855-3.6433 10.819 2.4715 10.819 2.7508 0 2.9624-0.23677 2.4578-2.75zm9.2886-2c-0.0253-5.0989-1.0768-7.25-3.544-7.25-3.2191 0-3.7295 1.3096-2.3304 5.9794 1.5196 5.0719 5.8979 6.0189 5.8744 1.2706zm8.7746-2.75c0.34196-5.2426-0.81965-6.9531-4.1536-6.1163-1.9097 0.47931-2.6073 1.3008-2.6073 3.0702 0 8.0166 6.2529 10.834 6.7609 3.046zm10.609 0.25c1.622-6.0524 0.89677-7.75-3.3107-7.75-5.1268 0-5.4503 0.76912-2.4441 5.8103 2.7739 4.6516 4.8413 5.3484 5.7548 1.9397zm7.63-0.37c0-0.76-0.42-1.38-0.93-1.38-0.51175 0-1.0742-1.0125-1.25-2.25-0.17575-1.2375-0.76955-2.2192-1.3196-2.1815-1.3579 0.093-2.9407 4.8407-2.2307 6.6909 0.72 1.88 5.73 1.12 5.73-0.88zm8.6874-0.16908c1.5819-1.0059 3.0476-5.2823 2.5583-7.4643-0.60271-2.6879-4.1471-2.1398-5.2705 0.8151-2.1103 5.5505-0.76124 8.8578 2.7122 6.6492zm-5.69-2.01c0-0.99 0.50079-2.3008 1.1129-2.9129 1.68-1.68 0.13-3.29-3.17-3.29-3.4377 0-3.3584-0.24323-1.4276 4.3779 1.61 3.84 3.49 4.82 3.49 1.82zm18.626-0.66701c1.6514-4.3034-3.6889-9.6312-6.3461-6.3312-2.1976 2.7291-0.33501 7.7983 2.8653 7.7983 1.642 0 3.164-0.64146 3.4808-1.467zm7.2084-2.4727c0.22704-1.5513-0.0935-2.1421-1-1.8433-0.73378 0.24184-1.4845 1.4671-1.6683 2.7228-0.22704 1.5513 0.0935 2.1421 1 1.8433 0.73378-0.24184 1.4845-1.4671 1.6683-2.7228zm8.0078 0.6301c1.5056-1.8141-0.0505-7.1065-2.212-7.523-2.8284-0.54496-4.2727 1.4535-3.8245 5.2923 0.4438 3.8015 3.7262 5.0144 6.0365 2.2307zm-68.463-4.6446c3.2-1.22 2.03-12.05-1.31-12.05-3.1272 0-5.6889 10.368-2.9847 12.08 1.7295 1.0949 1.3059 1.0983 4.2844-0.0341zm9.61-2.06c0-0.55476-1.3981-2.9173-3.1069-5.25l-3.1069-4.2413 0.72223 4.5c0.88058 5.4866 5.4915 9.6776 5.4915 4.9913zm14.887-1.6006c0.21272-0.18201-0.68728-2.8258-2-5.8751-3.4726-8.0663-6.2666-7.5423-6.685 1.2539l-0.29823 6.2695 4.2982-0.65869c2.364-0.36228 4.4723-0.80761 4.685-0.98963zm-10.91-3.64c-0.008-2.3375-0.34707-4.7714-0.75255-5.4086-0.74375-1.1689-6.5772-0.65253-6.024 0.5332 4.0701 8.7234 6.7974 10.686 6.7765 4.8754zm21.658 1.7961c5.63-1.61 5.56-11.55-0.08-11.55-3.5808 0-5.1814 2.5667-5.6124 9-0.25606 3.8224-0.0827 4.1729 1.8039 3.6467 0.9625-0.26842 2.7141-0.76371 3.8924-1.1006zm12.89-2.9951c3.4335-1.4346 4.1696-2.5108 2.7179-3.9732-0.4125-0.41554-0.75-1.953-0.75-3.4167 0-2.3685-0.32995-2.6224-3-2.3088-4.192 0.4924-5.8302 4.5176-3.893 9.5658 0.73837 1.9242 0.6439 1.9216 4.9251 0.13282zm-20.55-4.8c0.0128-2.3011-0.41052-2.75-2.5931-2.75-2.3449 0-2.5388 0.27724-1.9196 2.7444 1.542 6.144 4.4785 6.1476 4.5127 0.006zm32.45 3.2748c2.8239-1.0736 3.2613-3.4026 1.4046-7.4777-2.0123-4.4164-5.9415-2.973-7.3669 2.7063-1.3153 5.2406 0.63124 6.7983 5.9624 4.7714zm-47.28-7.6203c1.93-1.18 0.63-2.4-2.57-2.4-4.49 0-6.58 0.87-6.58 2.73 0 1.4666 6.6345 1.2272 9.1546-0.33036zm13.6-1.03c2.75-0.74 3-3.37 0.32-3.37-3.0796 0-7.244 1.9015-6.5663 2.9981 0.69834 1.1299 2.9271 1.2624 6.2512 0.37158zm10.707-2.3006c0.31644-0.512 0.1586-1.1885-0.35074-1.5032-1.19-0.73-4.11 0.36-4.11 1.54 0 1.1835 3.722 1.1519 4.4573-0.0379zm-23.681-4.2453c2.1515-2.1515-0.64465-4.2528-2.9196-2.194-1.0211 0.92412-1.8566 2.0605-1.8566 2.5252 0 1.2586 3.4238 1.0212 4.7762-0.3312zm15.634-1.7975c2.6543-0.95724 5.0128-9.9269 2.8304-10.764-5.7808-2.2183-18.516 8.1288-14.701 11.944 0.64399 0.64399 9.1606-0.20243 11.871-1.1797zm16.2-2.77c2.561-3.3736 1.7003-5.8282-2.5336-7.2255-6.4355-2.1239-8.417 1.5734-4.4083 8.2255 0.86057 1.428 5.6191 0.74253 6.9419-1zm46.232 209.2c1.68-3.68 1.49-4.56-1.84-8.45-1.6474-1.925-2.9964-3.8234-2.9976-4.2186-0.001-0.39523-0.67735-0.45959-1.5024-0.14301-2.1534 0.82634-1.8574 2.9418 1 7.1468 1.375 2.0235 2.5 4.6996 2.5 5.9469 0 3.016 1.4009 2.8782 2.8395-0.27918zm-167.05-12.577c-36.561-72.02-30.633-152.58 15.893-215.99 7.5562-10.299 7.9595-11.647 1.5524-5.1904-20.714 20.876-38.295 62.245-44.313 104.27-2.1026 14.685-0.27536 47.496 3.6497 65.535 2.6264 12.071 10.03 34.096 12.44 37.008 0.45887 0.55446 1.6571 3.0295 2.6626 5.5 1.9173 4.7106 13.318 22.335 14.004 21.649 0.21856-0.21857-2.4316-5.9702-5.8893-12.781zm172.5 4.2142c2.6281-4.449-5.0454-13.196-8.8248-10.059-2.0698 1.7178-1.9123 2.2631 2.2872 7.9176 4.3982 5.9221 4.3197 5.8964 6.5376 2.1417zm3.9774-7.3402c1.2111-3.5069-7.1978-11.881-9.7791-9.7383-2.2058 1.8306-1.8149 3.5448 1.2641 5.5434 1.5125 0.9818 3.338 2.6086 4.0567 3.615 1.5038 2.1059 3.827 2.408 4.4583 0.57992zm2.7819-6.8377c0.61452-1.1482 1.3252-3.2339 1.5792-4.6347 0.25403-1.4009 1.1355-3.8496 1.9587-5.4417 0.82329-1.592 1.2752-3.2534 1.0042-3.6918-0.27097-0.43844 0.61063-2.9765 1.9591-5.6401 3.3687-6.654 3.2072-7.504-1.4258-7.504-2.3012 0-4.4065-0.63733-5.1786-1.5677-1.1594-1.397-1.441-1.3154-2.587 0.75-2.0791 3.7471-1.5736 5.6589 2.1308 8.0585 5.4748 3.5465 4.829 5.1422-0.71345 1.7629-4.2922-2.6169-4.5038-2.5668-5.2586 1.2463-0.35384 1.7875-1.3994 4.7263-2.3234 6.5308l-1.6801 3.2808 3.744 3.5322c2.0592 1.9427 3.744 3.9539 3.744 4.4692 0 1.6974 1.9084 0.97669 3.0469-1.1507zm-4.1862-9.8262c-3.5894-2.91-1.695-3.4149 2.1551-0.57436 2.056 1.5169 2.7545 2.4883 1.7892 2.4883-0.87092 0-2.6458-0.86126-3.9443-1.9139zm15.725-25.076c1.2809-5.688-7.331-10.727-9.9565-5.8258-3.1086 5.8027-2.1933 9.2316 2.8723 10.761 4.9479 1.4937 5.7647 0.92465 7.0842-4.935zm-241.08 3.16c0-1.5175-7.2343-4.517-14.91-6.182-4.3754-0.9491-5.9324-0.82093-11.09 0.9129-3.7849 1.2724-6.3507 1.6667-6.95 1.0682-0.52-0.52-2.07-0.95-3.44-0.95-1.367 0-3.5042-0.95696-4.7492-2.1266l-2.2636-2.1266-0.67016 2.6701c-2.1355 8.5084-5.0329-1.6223-3.4233-11.969 0.7045-4.5288 1.0486-9.1225 0.76464-10.208-0.35349-1.3518-0.0371-1.9372 1.0035-1.8567 1.0671 0.0825 1.8588-1.5206 2.658-5.3825 6.0796-29.376 34.368-63.081 58.816-70.077 12.633-3.6152 4.453-5.8626-8.75-2.404-19.331 5.0638-30.578 12.327-39.462 25.481-11.168 16.539-24.069 47.939-16.644 40.515 1.4333-1.4333 2.6061-2.2432 2.6061-1.7997 0 1.3961-6.4285 8.3139-8.8991 9.5764-2.9351 1.4999-8.6314 11.855-9.4388 17.159-1.5567 10.225 11.947 16.082 39.467 17.119 9.6963 0.36518 18.246 1.0656 19 1.5565 1.9754 1.2865 6.3704 0.61323 6.3704-0.97589zm18.5-2.6027c0-3.2071-2.1924-6.3095-4.1053-5.8093-3.56 0.93-2.59 7.26 1.11 7.26 1.9568 0 3-0.50523 3-1.453zm-16-5.0558c0-1.436-13.484-5.9032-15.492-5.1326-2.0384 0.7822-1.9061 2.5732 0.24227 3.2792 6.2374 2.0498 12.255 4.8896 12.282 5.7961 0.0419 1.4049 2.9682-2.4822 2.9682-3.9428zm-283.7-1.96c-0.98818-1.3577-2.1168-2.4827-2.508-2.5-0.73566-0.0325-5.3111-4.5376-12.337-12.147-60.197-65.201-27.281-180.74 56.398-197.96 30.88-6.3539 57.215-1.1683 84.321 16.604l8.3293 5.4611-5.059-4.7464c-5.09-4.76-23.19-14.52-32.44-17.48-2.475-0.79184-6.1893-1.9883-8.254-2.6588-30.518-9.9107-75.609 1.946-102.47 26.944-10.282 9.57-23.38 31.898-28.726 48.969-1.9805 6.325-4.0861 12.85-4.6792 14.5-4.8478 13.488-0.95046 52.046 7.0754 70 0.49172 1.1 0.85431 3.4757 0.80575 5.2794-0.263 9.59 30.185 50.22 37.629 50.22 0.886 0 1.611 0.45 1.611 1s0.47101 1 1.0467 1c0.57568 0 0.23818-1.1109-0.75-2.4686zm252.77 1.4334c1.9-1.01 3.12-17.96 1.29-17.96-1.8857 0-3.1608 3.8633-2.6638 8.0712 0.37457 3.1717 0.0366 5.5444-1.104 7.75-1.728 3.3416-0.97871 3.991 2.4733 2.1436zm-240.07-4.85c-5.0943-4.7503-3.8868-6.0558 2.1055-2.2765 6.0667 3.8262 12.329 6.1807 16.167 6.0786 3.1965-0.0851 3.2023-0.0942 0.56672-0.89026-10.919-3.2978-15.852-9.468-5.2208-6.53 13.794 3.8122 17.419 4.4954 27.293 5.1449 7.7962 0.51281 10.229 0.39307 9.691-0.47702-0.39488-0.63893-1.9289-1.1686-3.409-1.177-1.48-0.008-3.3265-0.41759-4.1032-0.90925-2.0449-1.2945 0.94589-4.0754 4.3829-4.0754 3.2957 0 16.781-2.7262 21.912-4.4295 5.1814-1.7204 3.3383-2.6395-2.8985-1.4454-2.741 0.52478-9.5962 0.94521-15.234 0.9343-6.0426-0.0117-10.25 0.38252-10.25 0.96041 0 0.53915 1.35 0.98027 3 0.98027 4.6932 0 3.5224 1.6752-2.1161 3.0278-29.946 7.184-80.656-32.917-85.504-67.616-0.74299-5.3186-2.371-9.3862-3.6527-9.1267-1.3454 0.27245-2.5703-4.6224-3.7-14.786-0.78705-7.0806-0.85036-6.3911-0.55092 6 0.89753 37.14 30.267 91.5 49.435 91.5 0.46355 0 1.403 0.675 2.0877 1.5 0.68469 0.825 1.9025 1.5 2.7063 1.5 0.81752 0-0.37565-1.713-2.7081-3.888zm199.8-2.2749c0.33093-3.8628-0.94392-5.4534-4.8006-5.9895-3.8718-0.53829-4.1418 5.1091-0.38561 8.0638 3.523 2.7712 4.8153 2.2543 5.1862-2.0742zm50.7 0.14c2.6703-3.9981 4.6922-4.4742 10.354-2.4382 4.4307 1.5933 5.14 1.5989 10.355 0.0829 3.0792-0.89515 6.7187-1.6276 8.0877-1.6276 3.2925 0 3.4037-0.54863 2.9073-14.347l-0.42622-11.847-3.139 0.64839c-1.7264 0.35662-7.189 1.1203-12.139 1.697-10.32 1.2024-10.991 1.6996-17.216 12.758-6.4407 11.441-5.3541 24.911 1.216 15.074zm32.873 1.0437c2.2866-2.2866-1.0153-3.3844-6.0687-2.0177-6.0287 1.6305-6.487 1.8871-5.6858 3.1835 0.78826 1.2754 10.252 0.33682 11.755-1.1658zm228.65-1.02c0.35873-1.375 0.93782-3.952 1.2869-5.7266l0.63464-3.2266-5.8754 0.0827-5.8754 0.0827-0.37044 3.8845c-0.75583 7.9256 8.2782 12.268 10.2 4.9032zm-321.02-4.83c0-2.1935-3.1133-4.1017-6.75-4.1373-1.7875-0.0175-3.25-0.44605-3.25-0.95234 0-0.90999-4.6255-2.2996-8.5-2.5537-1.1-0.0721-3.7864-0.91328-5.9697-1.8692-4.5612-1.997-7.3913-1.8505-8.8373 0.45754-1.7191 2.7439-0.10037 4.8859 3.6923 4.8859 1.8964 0 3.6075 0.47831 3.8024 1.0629 0.19487 0.5846 1.4699 1.2422 2.8333 1.4614 5.2843 0.84948 8.5668 1.8415 10.722 3.2403 1.2907 0.83784 3.2584 1.2009 4.6356 0.85522 1.5552-0.39033 2.8521-0.0472 3.7047 0.98007 1.4608 1.7601 3.917-0.39133 3.917-3.4309zm45.03-5.1134c-0.57231-1.0694-1.4882-2.2209-2.0352-2.559-4.6199-2.8553 5.1892-23.758 21.684-46.208 13.086-17.81 19.232-23.471 29.571-27.237 2.7859-1.0148 3.7942-3.0594 1.5-3.0415-13.138 0.10267-51.75 45.394-51.75 60.703 0 1.0382-0.39083 2.3151-0.86851 2.8376-4.9414 5.4051-4.209 17.45 1.0612 17.45 1.5499 0 1.6961-0.33943 0.83716-1.9443zm-207.03-1.56c-2.9001-1.6578-5-1.8986-5-0.57332 0 0.99627 2.2774 1.7921 5.5 1.9219 1.739 0.07 1.6737-0.10596-0.5-1.3486zm175.81-2.75c10.7-15.64 10.32-17.71-3.81-20.75-15.654-3.3676-27.587-7.5631-34.344-12.075l-6.0315-4.0277-2.7718 2.0493c-1.53 1.14-4.14 2.06-5.81 2.06-2.8568 0-3.2955 0.5621-7.5577 9.6828-4.9576 10.609-4.9659 10.542 1.5095 12.193 16.188 4.1279 39.009 10.509 46.5 13.002 8.3596 2.782 9.0324 2.6657 12.311-2.1274zm-48.884 1c1.2772-3.3289-6.3111-7.6913-10.55-6.0648-0.77197 0.29623-1.9604 0.0902-2.6408-0.4578-3.5512-2.8599-12.796-1.5586-10.886 1.5322 1.111 1.7977 10.144 2.7222 10.163 1.0401 0.008-0.71482 0.59833-0.17468 1.3116 1.2003 0.84035 1.62 2.0326 2.4223 3.387 2.2792 1.1496-0.12144 2.6395 0.44106 3.3108 1.25 1.8188 2.1915 4.9208 1.7821 5.9035-0.77919zm358.12 0.68938c0.71236-0.85834 1.4982-4.0083 1.7463-7l0.45-5.44h-5.0564c-5.4735 0-5.462-0.0124-6.7512 7.261-1.0658 6.0128 5.8328 9.73 9.6103 5.1784zm-462.49-4.52c1.4971-1.3884 2.3567-1.608 3.1579-0.80675 1.8736 1.8736 8.2863-0.79272 8.2795-3.4425-0.0134-5.2296-2.0403-9.8793-3.7044-8.4982-1.3881 1.152-1.4869 1.0095-0.81907-1.1821 1.2652-4.152 1.1608-4.3453-2.713-5.0215-4.7448-0.82826-4.8842-0.65003-4.2676 5.4569l0.5122 5.0724-1.2513-4.4362c-1.78-6.31-12.75-7.92-12.75-1.87 0 1.1759-0.33176 1.8063-0.73725 1.4008-0.40548-0.40549-0.74298-1.4549-0.75-2.332-0.007-0.87715-1.3628-2.4051-3.0128-3.3955-1.65-0.99037-3.7221-2.2468-4.6048-2.7921-1.3686-0.84552-1.9204 0.16044-3.75 6.8364-3.6351 13.264-2.8481 14.841 3.7357 7.485 2.265-2.53 4.119-3.99 4.119-3.24 0 0.74934-1.125 2.5757-2.5 4.0586-4.0823 4.4026 0.60421 11.432 5.122 7.6822 1.1896-0.98729 1.8104-0.88971 3.1782 0.49958 2.1707 2.2048 9.7308 1.3298 12.757-1.4766zm-10.55-4.42c0.003-1.1 0.61979-3.125 1.3701-4.5 0.75027-1.375 2.0947-3.85 2.9877-5.5 1.2738-2.3537 1.6163-2.5692 1.59-1-0.0184 1.1-1.3656 4.475-2.9936 7.5-1.7835 3.3138-2.9577 4.705-2.9542 3.5zm89.083 0.89179c2.2579-2.7206-3.2439-5.8377-5.7972-3.2844-0.80981 0.80981-1.4104 0.54111-2.2352-1-1.3257-2.4771-4.5811-2.791-5.4505-0.52557-0.88366 2.3028-0.91576 2.2697 2.893 2.9842 1.925 0.36113 3.5 1.0252 3.5 1.4758 0 0.45054 1.0125 1.0142 2.25 1.2525 1.2375 0.23835 2.5324 0.49465 2.8776 0.56955 0.34515 0.0749 1.2282-0.58752 1.9622-1.472zm-61.177-5.961c1.4739-4.9919 1.0489-5.9284-3.1625-6.9685-3.2326-0.79834-3.5759 0.92297-1.5065 7.5534 1.6258 5.2092 3.0094 5.0358 4.669-0.58494zm-48.092 0.49086c0.17611-1.3319 1.4136-5.9324 2.75-10.223 1.339-4.29 2.432-10.05 2.432-12.79 0-4.6338 0.24467-5.1265 3.5-7.0472 2.3175-1.3674 3.5-2.81 3.5-4.2701 0-1.2128 1.575-3.7316 3.5-5.5974 3.6942-3.5806 4.5007-6 2-6-0.825 0-1.5 0.59656-1.5 1.3257 0 1.9775-4.6744 5.9936-6.0131 5.1662-0.83615-0.51677-0.85687-1.0219-0.07403-1.8048 2.9601-2.9601 0.88281-5.6957-2.2302-2.9371-1.4964 1.326-2.0841 1.437-2.426 0.45826-0.36611-1.0483-0.76267-1.0515-2.1039-0.0172-1.3757 1.0609-1.3594 0.92898 0.09725-0.787 2.6143-3.0796 2.1619-3.7226-2.2067-3.1367l-3.9567 0.53071 2.9567-2.4879c5.9544-5.0103 2.1274-5.3629-9.2336-0.85079-3.1297 1.243-6.0547 1.9049-6.5 1.4709-0.44531-0.43397-3.2702-0.14581-6.2776 0.64034s-6.6074 1.3772-8 1.3134c-2.0057-0.0919-2.1163-0.20654-0.53207-0.55155 1.1-0.23955 2.9-0.82845 4-1.3087 1.1-0.48022 3.125-1.1092 4.5-1.3977 8.5718-1.7987 13.297-3.406 14.069-4.7851 0.48591-0.86827 2.2692-2.1526 3.9628-2.8542 2.0329-0.84204 2.7428-1.612 2.089-2.2658-0.65379-0.65379-2.4147-0.42041-5.1817 0.68673-3.0453 1.2185-5.4557 1.482-8.8153 0.96373l-4.623-0.7 6.877-1.2894c7.616-1.428 8.7676-2.0258 6.594-3.423-1.2231-0.78624-1.2423-1.0931-0.11428-1.8206 2.2827-1.4721 0.19972-1.7538-15.101-2.0423-18.439-0.34759-17.055-2.9718-12.926 24.51 1.2202 8.123 6.6999 19.508 13.021 27.053 2.832 3.38 5.149 6.44 5.149 6.79 0 0.97695 5.3434 5.4877 6.5437 5.524 0.57405 0.0174 1.6514-2.7074 2.394-6.0551 0.74268-3.3477 1.9411-6.3134 2.6632-6.5904 0.85513-0.32815 1.1443-1.6054 0.82927-3.6633-0.4628-3.0237-0.4365-3.0521 0.61201-0.65955 1.0657 2.4318 1.1346 2.4471 2.5267 0.55887 2.5649-3.479 1.5094 0.16702-2.064 7.1304-4.0655 7.9221-4.3348 10.798-1.3125 14.015 2.6166 2.7853 4.1912 2.5188 4.6278-0.78309zm-16.775-14.33c-0.02345-0.49808 1.0824-2.3806 2.4574-4.1833s2.5-3.6027 2.5-4c0-0.39728 1.125-2.1973 2.5-4s2.5-3.5373 2.5-3.8546c0-0.46576 6.283-9.9007 7.6403-11.473 3.301-3.8243 0.33982 3.214-4.1722 9.9167-1.6661 2.475-3.6144 5.6633-4.3295 7.0852-1.5913 3.1639-9.0368 11.766-9.096 10.509zm-13.477-22.84c0.7664-1.9044 13.334-10.184 14.178-9.3399 0.40697 0.40697-0.02159 1.1661-0.95236 1.687-0.93077 0.52088-2.277 1.4996-2.9917 2.175-5.2335 4.9458-11.333 8.211-10.234 5.4779zm20.099-5.4188c-0.89-0.89 2.281-4.33 3.99-4.33 1.921 0 1.6665 0.98657-0.808 3.1327-2.4655 2.1383-2.3036 2.0774-3.1825 1.1984zm104.26 42.8c1.21-2.25 0.5-3.13-2.54-3.13-2.8504 0-3.9386 1.6368-2.356 3.5438 1.6577 1.9974 3.6956 1.8256 4.8933-0.41232zm-39.487-1.0685c1.5957-1.7632 1.4512-4.0854-0.25199-4.0477-2.6076 0.0578-5.4928 5.9847-2.9134 5.9847 0.77682 0 2.2012-0.87164 3.1654-1.937zm32.549-1.0367c1.1421-0.72207 1.2164-1.2182 0.31722-2.1175-1.49-1.48-4.31-0.46-4.31 1.57 0 1.7238 1.7586 1.9695 3.9916 0.55771zm408.86-0.77c0.50673-0.9625 1.2444-6.3392 1.6393-11.948l0.71802-10.198-3.7337 1.0309c-2.0535 0.56701-4.5754 0.8108-5.6042 0.54177-1.66-0.43-1.87 0.13-1.87 4.92v5.4064h3.6224c3.1586 0 3.4577 0.19849 2.336 1.5501-0.71212 0.85806-2.4312 1.4161-3.8507 1.25-2.4787-0.29006-4.9897 5.8762-3.441 8.4499 0.96821 1.609 9.2382 0.79697 10.184-1zm-416.85-1.75c0-0.83333-0.88889-1.5-2-1.5-1.9922 0-2.6011 1.0655-1.3333 2.3333 1.21 1.22 3.33 0.69 3.33-0.83zm-5-1.9326c0-1.8063-3.8619-3.1055-5.2135-1.7539-1.5 1.49-0.02 3.18 2.77 3.18 1.45 0 2.44-0.58 2.44-1.43zm-13-3.4461c0-1.2232-5.9033-3.5514-6.7805-2.6742-0.394 0.394 0.15644 1.3546 1.2232 2.1346 2.1534 1.5746 5.5573 1.9051 5.5573 0.53956zm-41-8.1668c0-3.0274 2.5858-6.5041 6.4429-8.6626 1.5324-0.8576 1.9206-2.4163 2.1247-8.5314 0.28501-8.5386 2.0316-12.73 9.277-22.26 6.0995-8.0235 16.62-18.5 18.579-18.5 0.86723 0 1.6134-0.3375 1.658-0.75 0.81565-7.5299 0.34558-8.05-4.7969-5.3075-10.888 5.8062-16.66 12.86-28.784 35.177-2.75 5.0618-6.8 11.043-9 13.292-4.7318 4.8365-6.6854 8.6848-5.4219 10.681 0.49022 0.77435 0.89819 2.4349 0.90661 3.6901 0.01609 2.3986 2.6883 4.0395 6.7653 4.1544 1.8547 0.0523 2.25-0.4717 2.25-2.9821zm-2-12.726c0-1.4354 3.9293-4.6323 4.7208-3.8409 0.38968 0.38967 0.22618 1.4744-0.36331 2.4105-1.17 1.87-4.36 2.91-4.36 1.44zm19.5 13.89c0-0.85814-1.3743-1.438-3.75-1.5822-2.0625-0.12522-3.75 0.15299-3.75 0.61826s0.9 0.84594 2 0.84594 2 0.483 2 1.0733c0 0.59033 0.7875 0.92167 1.75 0.73631s1.75-0.94658 1.75-1.6916zm-12.49-0.36c0.008-0.6875 0.31055-2.375 0.67342-3.75 0.59238-2.2447 0.48885-2.3598-1.0137-1.1276-1.8 1.48-2.31 6.13-0.67 6.13 0.55 0 1.0061-0.5625 1.0136-1.25zm38.99-6.8c7.975-0.56918 14.656-1.4822 14.846-2.0289 0.2139-0.61406 2.653-0.73301 6.3813-0.3112 4.9254 0.55725 5.9493 0.42647 5.5685-0.71123-0.55932-1.6711-13.581-2.286-18.296-0.8639-1.65 0.49764-11.738 1.032-22.417 1.1873-13.679 0.19903-19.532 0.62712-19.805 1.4486-0.81643 2.4542 10.987 2.902 33.723 1.2793zm433.5-3.065c2.4696-2.4155 1.1872-15.395-1.5-15.182-3.8662 0.30715-7.1598-0.63105-6.4196-1.8287 0.36571-0.59173 1.9337-0.81712 3.5022-0.50342 4.4595 0.89189 7.9566-6.2302 5.2339-10.659-0.26801-0.43599-0.63605-3.2303-0.81786-6.2095-0.18181-2.9793-0.68574-5.9915-1.1198-6.6939-0.4341-0.70238-0.90538-3.2755-1.0473-5.718-0.35027-6.029-2.3137-7.9828-5.7556-5.7275-5.2868 3.464-4.1354 10.637 1.7093 10.648l3.2148 0.006-2.8541 1.4885c-1.5697 0.8187-3.2061 1.271-3.6363 1.0051-1.3536-0.83659-1.539 2.4891-1.1877 21.307 0.3302 17.687 0.41597 18.343 2.51 19.208 2.3804 0.98331 6.5991 0.39438 8.1681-1.1403zm-8.3632-27.775c-1.8333-1.1615 0.34196-1.928 3.6674-1.2923 1.7619 0.33681 2.0313 0.67573 1.0377 1.3054-1.7031 1.0794-2.9863 1.0758-4.7051-0.0131zm-372.21 26c3.575-0.69364 4.5502-1.8046 3.3046-3.7647-0.55594-0.87484-3.1866-0.83513-10.734 0.16202-12.465 1.6469-15.063 2.5977-12.93 4.731 0.66011 0.66011 15.332-0.15304 20.359-1.1283zm59.701-0.71025c5.8284-2.415 6.7456-3.3981 4.6332-4.9663-1.4819-1.1002-1.5629-1.632-0.51109-3.3548 1.7486-2.864 1.6254-8.0745-0.19098-8.0745-0.79254 0-1.7191 0.45-2.059 1-0.33992 0.55-1.4968 1-2.5708 1-1.6968 0-1.8741 0.49203-1.3527 3.7529 0.74464 4.6568-2.3419 9.3827-5.5756 8.5371-1.32-0.34-2-0.02-2 0.94 0 3.2536 3.5666 3.6904 9.6279 1.1789zm-39.95-0.59c3.6966-1.3367 4.1364-3.1295 1.6747-6.8266-3.4461-5.1756-8.3537-6.8788-8.3537-2.8992 0 4.7941-3.622 0.91995-9.9226-10.613-10.731-19.643-20.145-33.643-13.32-19.807 3.6087 7.315 10.445 19.85 11.342 20.797 0.49517 0.5225 0.90031 1.5538 0.90031 2.2917 0 0.73794 1.35 4.2292 3 7.7583s3 6.7954 3 7.2583c0 3.1523 5.8016 4.1661 11.679 2.0408zm11.813 0.21403c0.33545-0.54277 3.1745-1.6919 6.309-2.5536 8.9814-2.4691 10.199-3.1635 10.199-5.8156 0-3.5181-2.5456-5.3453-4.7688-3.4228-1.9631 1.6976-9.678 3.779-14.007 3.779-3.8786 0-4.1065 0.39855-2.8725 5.0219 1.0351 3.878 3.6515 5.4005 5.1405 2.9912zm-99.682-0.65918 2.3102-0.61874-2.7474-2.8676c-3.409-3.5583-5.632-3.6254-8.287-0.25007-3.174 4.0351 0.9745 5.8119 8.724 3.7364zm27.82-4.6c6.9432-7.8761 2.9103-24.767-5.9081-24.744-7.3556 0.0184-11.738 3.2574-7.7645 5.7388 1.0792 0.674 3.7974 4.0448 6.0404 7.4905 3.9678 6.0957 4.2249 7.4026 2.3946 12.172-0.94959 2.4746 2.9029 1.9912 5.2376-0.6571zm-17.589-1.0318c1.97-1.55 4.96-5.86 4.96-7.15 0-0.53925-1.8 0.77721-4 2.9254-4.8093 4.6962-5.514 7.8115-0.95411 4.2182zm131.95-5.5906c-0.00082-2.4258-0.82904-4.5901-2.5-6.5331-2.8339-3.2952-3.3106-2.7631-0.86647 0.96712 1.2058 1.8402 1.4678 3.6917 1.0026 7.0851-0.54903 4.0057-0.43794 4.4347 0.8677 3.3512 0.82679-0.68617 1.4968-2.8672 1.4961-4.8702zm-134.74 0.51c3.762-5.9551 3.4527-6.3192-1.164-1.3699-3.5013 3.7536-4.2874 5.73-2.277 5.7248 0.38004-0.00098 1.9285-1.9607 3.441-4.3549zm0.72849-10.131c0.0118-0.54345-2.2858 1.3192-5.1059 4.1393-2.9295 2.9295-4.8289 5.6104-4.431 6.2542 0.70552 1.1416 9.4943-8.4367 9.5369-10.394zm-98.947 2.99c-0.42384-3.3-0.8773-5.325-1.0077-4.5-0.33827 2.1402-0.000416 7.1826 0.62483 9.3254 0.98679 3.3818 1.1587 1.2152 0.38287-4.8254zm216.89 0.56693c2.44-1.54 2.39-5.07-0.06-5.07-2.03 0-5.86 3.37-5.86 5.15 0 1.1191 4.1161 1.0593 5.926-0.0861zm-74.92-2.67c9.5204-2.7433 10.208-3.1465 9.051-5.3083-1.0008-1.87-1.2232-1.8592-9.7875 0.47471-12.307 3.354-13.79 4.0901-12.171 6.0412 1.4151 1.7051 3.4648 1.5134 12.908-1.2076zm-79-1.9992c0-0.3276-1.0036-2.005-2.2302-3.7276-8.4827-11.913 1.4712-33.985 16.315-36.177 6.1902-0.91409 7.678-1.8758 6.0105-3.885-1.1318-1.3637-1.905-1.2025-6.8265 1.4238-3.0526 1.6289-6.2743 2.9824-7.1593 3.0076-8.7873 0.2508-18.534 20.388-14.631 30.228 2.1439 5.4058 8.5218 12.239 8.5218 9.1301zm-64.501-10.61c-0.69744-5.5109-1.5003-4.2101-1.4132 2.2897 0.06948 5.1872 0.24958 5.8708 0.93997 3.5678 0.46971-1.5669 0.68268-4.2028 0.47327-5.8574zm141.25 5.63c8.8927-1.983 9.9321-3.1532 6.5-7.3176-1.683-2.0421-1.9605-2.0679-7.25-0.67369-3.025 0.79731-8.3125 1.9895-11.75 2.6492-6.9667 1.3371-7.1994 1.65-4 5.3785 2.5357 2.955 3.0909 2.9538 16.5-0.0364zm40.102-4.4525c3.1062-0.62387 6.7253-1.3458 8.0423-1.6042 2.5686-0.50399 1.9077-1.7975-1.3946-2.7294-1.1-0.3104 0.5875-0.38659 3.75-0.16932 4.4996 0.30914 5.75 0.0846 5.75-1.0327 0-1.7598 0.16278-1.7597 9.7297 0.008 4.2737 0.78958 13.17 1.921 19.77 2.5143 11.827 1.0631 31.075 3.4668 37.071 4.6292 2.3794 0.46131 4.0679-0.077 7.5-2.3912 4.2156-2.8424 9.2893-5.3742 13.241-6.607 1.7351-0.54137 1.7374-0.6901 0.0529-3.5416-3.84-6.52-16.15-3.79-13.36 2.95 2.0399 4.9246 0.51017 5.6461-8.7492 4.1264-4.2629-0.69963-10.001-1.4441-12.751-1.6543-4.2505-0.32496-13.494-2.0118-29.5-5.3836-1.925-0.40552-6.4893-2.1663-10.143-3.9129-4.55-2.18-8.13-3.18-11.34-3.18-5.9802 0-5.5818 1.6578 0.92605 3.8534 4.7111 1.5894 7.7098 4.3204 6.2961 5.7341-0.37588 0.37589-1.935-0.15724-3.4646-1.1847-4.9-3.29-7.45-4.4-10.08-4.4-1.4165 0-5.0776-0.44326-8.1357-0.98502s-8.7102-1.4146-12.56-1.9396c-3.85-0.52503-10.488-1.5771-14.75-2.338-4.2625-0.7609-7.75-1.2085-7.75-0.99465 0 0.21384 0.44332 1.2172 0.98516 2.2296 0.98396 1.8385 1.7439 2.0186 21.308 5.0491 16.638 2.5772 17.696 6.192 3.1777 10.863-5.7855 1.8614-10.791 3.8243-11.123 4.3618-1.2895 2.0865 2.0924 2.4204 6.861 0.6774 2.7477-1.0043 7.5373-2.3365 10.643-2.9604zm11.412-9.8952c-1.938-1.6171-2.0191-1.9483-0.6091-2.4894 1.9269-0.73943 6.67 2.0858 5.8175 3.4652-0.89133 1.4422-2.7214 1.0994-5.2084-0.97577zm-116.76 5.72c1.65-2.8335 4.2974-6.6598 5.8831-8.503 3.4537-4.0145 3.0027-4.896-1.525-2.9807-4.2288 1.7889-6.675 4.5176-8.4093 9.3804-3.2743 9.1809-0.81405 10.458 4.0512 2.1033zm91.429 1.0734c11.366-3.6267 11.254-4.1444-1.499-6.9312-13.137-2.8708-13.291-2.799-8.4237 3.9206 3.2173 4.4414 4.356 4.7869 9.9227 3.0105zm-141.93-5.36c0-0.825-0.45-1.5-1-1.5s-1.807-0.7875-2.7934-1.75c-2.855-2.79-11.459-9.25-12.312-9.25-1.265 0-1.7357 1.319-2.4843 6.9627l-0.70941 5.3478 5.6494-0.66398c3.35-0.39 5.649-0.27 5.649 0.29 0 0.51995 1.4625 1.1269 3.25 1.3487 1.7875 0.22183 3.5875 0.47534 4 0.56336 0.412 0.09 0.75-0.52 0.75-1.34zm8.7507-1.0239c-0.26536-1.3881-0.07097-2.7782 0.43198-3.089 0.52199-0.32262 0.41189-1.1707-0.25655-1.9761-1.717-2.07-3.159-1.72-2.426 0.59 0.73258 2.3081-1.2559 2.7997-2.1284 0.52611-0.31107-0.81064-2.7719-2.8315-5.4686-4.4908-2.697-1.66-4.903-3.7-4.903-4.53 0-0.83008-1.8749-3.3841-4.1664-5.6756l-4.1664-4.1664-0.88518 2.3929c-1.8172 4.9124 2.7936 10.108 16.363 18.44 8.8265 5.4192 8.2339 5.2653 7.6052 1.9761zm276.9-3.06c4.402-0.8804 5.5355-4.7232 6.0971-20.671 0.51172-14.53-0.18534-16.723-3.3376-10.5-1.9202 3.7907-4.3578 6.75-5.5601 6.75-2.2926 0-0.3221-4.833 4.155-10.191 3.4859-4.1718 5-6.8659 5-8.8964 0-4.0695-1.4506-3.6304-4.1751 1.264-2.3745 4.2657-4.8249 6.0951-4.8249 3.6022 0-0.76335 1.6097-3.1453 3.5772-5.2933 5.53-6.04 7.39-11.48 3.92-11.48-0.825 0-1.5 0.5671-1.5 1.2602 0 1.8407-5.3156 7.2929-5.7729 5.9212-0.21102-0.63307 1.6403-3.7454 4.114-6.9162s4.5873-6.4402 4.6968-7.2652c0.55478-4.18-0.28957-4.2973-3.5978-0.5-4.095 4.7003-3.4932 2.17 1.1892-5 2.907-4.4514 3.2634-5.768 3.2479-12-0.01-3.85 0.12665-10.15 0.30271-14 0.28186-6.1634 0.11096-6.9834-1.4299-6.8611-0.9625 0.0764-1.75-0.26111-1.75-0.75 0-0.49 0.41-0.89 0.9-0.89 0.95 0 3.1-5.32 3.1-7.65 0-2.0289-2.348-1.6244-3.7679 0.64922-1.7616 2.8208-3.6192 2.6015-2.1176-0.25 0.65169-1.2375 1.455-2.475 1.7852-2.75 2.5379-2.1139 4.5169-13.042 2.3503-12.978-0.4125 0.0121-2.1 2.0361-3.75 4.4978-2.7023 4.0317-5.5 5.8715-5.5 3.6169 0-0.47482 2.25-3.9113 5-7.6367 6.3919-8.6589 7.0217-13.733 0.7769-6.259-4.1656 4.9854-3.5468 0.88773 0.87077-5.7656 3.974-5.9852 6.1289-16.094 3.1904-14.967-0.78091 0.29966-1.9413 1.7703-2.5787 3.2681-1.9489 4.5796-5.7976 10.569-7.0623 10.991-2.4072 0.80241-1.0701-2.1854 4.5364-10.136 7.4622-10.583 9.3708-26.693 2.2664-19.131-4.9568 5.2763-5.3893 2.4831-0.5-3.229 1.925-2.2489 3.5-4.6028 3.5-5.2309 0-0.62806-1.575 0.0594-3.5 1.5277-4.3771 3.3386-4.6871 1.3151-0.52233-3.4094 3.48-3.9477 4.621-6.9597 3.1816-8.3991-0.71916-0.71916-1.9028 0.39013-3.842 3.6007-1.5415 2.552-3.1435 4.64-3.56 4.64-1.916 0-0.42729-4.1089 2.7427-7.5697 4.6297-5.0544 4.9065-9.9181 0.32874-5.7753-2.5709 2.3266-2.3682-0.16276 0.23991-2.9468 2.71-2.8928 2.0934-5.8568-3.221-15.484-9.6458-17.474-22.373-29.124-46.098-42.198-4.7973-2.6436-4.7173-2.9547 0.5-1.9455 4.3142 0.83453 10.877 3.9835 22.701 10.893 11.255 6.5768 27.964 27.352 31.992 39.777 1.549 4.7781 3.2844 5.6929 2.8455 1.5l-0.29-2.75 14-0.0353c7.7-0.0194 19.175-0.17539 25.5-0.34658 6.325-0.1712 12.288 0.005 13.25 0.39231 2.319 0.93235 2.2345-0.64032-0.30145-5.6112-8.9785-17.599-22.057-29.426-45.628-41.261-9.1421-4.5902-7.8961-6.1049 2.1723-2.6409 17.814 6.1289 39.115 22.77 46.766 36.536 10.048 18.078 10.596 25.094 8.2125 105.18-0.25997 8.7352-0.0297 13.44 0.67925 13.878 2.208 1.3646 2.8189-2.5269 2.8402-18.093 0.012-8.8 0.48404-25.695 1.0489-37.545 1.1108-23.302-0.20411-42.211-3.6355-52.281-2.2467-6.5937-1.1434-6.9479 1.433-0.46006 5.1453 12.957 7.5768 31.028 6.694 49.748-0.7 14.82-0.33 18.04 2.09 18.04 1.2136 0 1.3768-1.1327 0.90056-6.25-0.49342-5.3013-0.38711-5.9553 0.70034-4.3088 3.8982 5.9024 8.2089 8.216 9.4213 5.0565 0.9-2.36-0.52-6.5-2.22-6.5-2.9192 0-5.8525-2.1092-4.3003-3.0922 10.267-6.502 26.006 7.9266 15.918 14.592-2.8359 1.8738-3.9794 4.8006-2.2827 5.8425 0.4125 0.2533 0.525 5.7924 0.25 12.309-0.63296 14.999-2.5 15.146-2.5 0.19608-0.01-11.93-1.86-15.85-7.5-15.85-2.4436 0-2.6356 0.31395-2.5994 4.25 0.12 12.97-0.52 23.75-1.41 23.75-1.2908 0-1.3312-17.513-0.046-19.914 1.1787-2.2024-5.1849-9.1394-6.4726-7.0559-0.4092 0.66211-0.94105 8.4096-1.1819 17.217l-0.43786 16.013 2.8191-0.60267c1.5505-0.33147 7.9942-1.5396 14.319-2.6848 6.325-1.1452 12.288-2.3127 13.25-2.5945 1.5278-0.44738 1.75-1.8917 1.75-11.377v-10.865l-3.049-2.1711c-3.2659-2.3256-3.4605-4.6585-0.34726-4.1637 4.9699 0.78989 6.3963 4.526 6.3963 16.754v11.45l3.25-0.0153c5.6554-0.0266 5.9512-0.65865 5.5972-11.962-0.27181-8.6804-0.6687-10.767-2.5842-13.586-3.906-5.7481-2.0318-7.5591 2.9972-2.896 2.2543 2.0903 2.7398 3.3925 2.7398 7.3491 0 2.6448 0.29294 8.2741 0.65097 12.51l0.65098 7.701 4.099-0.30012 4.1-0.3 0.5-10.448 0.5-10.448-3.25-3.4416c-4.3825-4.6408-3.6826-7.3737 1.25-4.8807 3.2624 1.6489 3.673 3.2834 4.1588 16.555 0.51382 14.037 0.3711 13.661 5.5318 14.577l3.6907 0.65547 0.33774-12.284c0.29298-10.656 0.0913-12.658-1.5213-15.103-3.0374-4.6051-0.74544-7.6016 2.8096-3.6732 1.5781 1.7438 1.8289 3.9939 1.905 17.089l0.0876 15.081 3.7614 1.2968c4.7283 1.6302 4.384 2.559 5.2326-14.116 0.6045-11.879 0.48595-14.278-0.7412-15-2.5905-1.5241-4.0766-5.2979-2.3476-5.9614 4.6386-1.78 5.886 2.5222 5.9934 20.67l0.10143 17.142 4.6961 2.3866c2.5828 1.3126 4.9058 2.0473 5.1621 1.6326 1.2059-1.9511-0.0459-35.804-1.4034-37.955-1.9665-3.115 0.20903-5.5398 2.7187-3.0302 1.3214 1.3214 1.73 4.162 2.0077 13.957 0.19175 6.7639 0.77001 14.098 1.285 16.298 0.57788 2.4686 0.58131 5.5314 0.009 8-0.51008 2.2-0.93814 4.2702-0.95126 4.6005-0.0224 0.56368 9.6347 6.8995 10.516 6.8995 0.22398 0 2.4322 2.025 4.9072 4.5 5.803 5.803 5.5526 6.0214 5.5526-4.8448 0-10.035 1.9256-40.883 2.595-41.572 1.402-1.4425 1.6952 3.883 1.5856 28.801l-0.12281 27.914 2.8364 3.5692c3.7524 4.7218 3.6798 5.0032 3.1058-12.03-0.275-8.1605 0.0324-20.462 0.68313-27.337 1.8378-19.417 1.6936-25.218-0.69029-27.777-2.7326-2.9332-4.9928-1.8538-4.9928 2.3843 0 4.4274-1.8628 4.3517-4.8092-0.19561-1.7878-2.7592-2.05-3.8761-1.1616-4.9467 0.71746-0.86448 0.8729-2.6164 0.4147-4.6738-2.12-9.52-0.02-13.78 6.8-13.78 8.6058 0 15.33 6.6375 14.334 14.148-0.53619 4.042-0.34395 4.9046 1.2875 5.7778 2.5672 1.3739 3.3201-3.5764 3.0374-19.971l-0.20927-12.136-4.2998-4.0301c-5.9476-5.5746-9.2507-7.1746-12.116-5.869-1.3 0.6-2.27 0.64-2.27 0.12 0-1.5 4.26-4.04 6.76-4.04 5.0749 0 9.9516-3.5892 9.4568-6.9602-0.43125-2.9383-0.67585-3.0871-5.0861-3.0942-8.4702-0.0136-14.621-0.44893-15.635-1.1066-2.5426-1.6501-20.032-2.1873-18.694-0.57414 0.71266 0.85869 3.6356 1.8739 6.4954 2.256 2.8598 0.38208 5.9671 1.3728 6.9051 2.2015 1.0811 0.95523 3.0026 1.3554 5.2491 1.0931 2.3603-0.27555 3.2101-0.0801 2.5446 0.58539-0.55 0.55-1 1.36-1 1.8 0 1.1632 6.769 0.98272 7.5-0.2 0.33992-0.55 1.3666-1 2.2815-1 1.2326 0 1.023 0.43832-0.80901 1.692-1.3599 0.93062-2.6975 1.9873-2.9725 2.3482-0.275 0.36088-2.525 0.9725-5 1.3592-3.602 0.56271-4.2505 0.45331-3.25-0.54818 2.18-2.182 1.3604-3.1308-2.2049-2.5522-2.8402 0.4609-3.5662 0.21001-4.0804-1.4102-0.36342-1.145-1.8576-2.2173-3.5659-2.559-1.6172-0.32344-3.1826-0.97995-3.4786-1.4589-0.3-0.48-1.37-0.87-2.4-0.87-1.0217 0-2.0224-0.49418-2.2237-1.0982-0.23542-0.70625-7.4922-1.4271-20.333-2.0198-28.73-1.3261-59.056-4.1847-62.967-5.9356-1.1-0.49236-4.5805-1.8364-7.7344-2.9868-6.7052-2.4457-13.897-8.0622-15.135-11.821-0.47842-1.4515-2.6159-4.456-4.75-6.6769-6.7374-7.0112-3.6532-15.248 8.1199-21.686 11.101-6.0702 10.061-5.9989 83-5.6937 61.719 0.2582 78-0.17469 78-2.0739 0-2.5701-146.42-5.3747-195.5-3.7448-12.65 0.42012-42.908 0.64512-67.239 0.5-47.52-0.283-45.26-0.523-45.26 4.814 0 1.8792-0.94028 2.8264-4.25 4.2813-15.942 7.0075-17.117 6.9611-17.555-0.69374-0.26105-4.5634-0.55058-5.2348-2-4.6379-0.93213 0.38385-3.8642 1.2902-6.5158 2.014-18.402 5.0237-34.256 22.377-39.669 43.421-2.0638 8.0232-1.1856 9.7017 4.7908 9.1574 1.2702-0.11569 1.2883-7.3627 0.0215-8.6295-0.2948-0.2948-0.32106-1.6604-0.0583-3.0347 0.54744-2.8638 3.236-1.6066 3.236 1.5131 0 3.8643 8.0838 8.1413 15.726 8.3202 7.5556 0.1769 10.813-3.2052 9.7727-10.145-0.59037-3.9369-0.48444-4.3753 0.7997-3.3096 4.6643 3.871-0.92193 16.663-7.279 16.669-3.7243 0.003-1.0512 1.9319 2.9807 2.1506 9.4413 0.51224 65.487 0.35682 75.432-0.20918 12.233-0.69625 15.104 0.69356 14.142 6.8454-1.2949 8.2801-2.372 183.4-1.1578 188.23 0.71864 2.8632 6.0231 3.1399 17.229 0.89868zm-2.59-68.92c-0.03-0.55 1.2916-3.025 2.9369-5.5s2.9934-3.7814 2.9957-2.903c0.002 0.87834-0.78322 2.5278-1.7457 3.6654-0.9625 1.1376-2.286 2.894-2.9412 3.903-0.65516 1.009-1.2157 1.3846-1.2457 0.83456zm193.46-23.433c-0.33742-1.0631-0.10886-10.569 0.50792-21.125l1.1214-19.192-3.0753-3.1729c-3.53-3.64-3.93-5.58-1.15-5.58 2.0136 0 4.4591 1.9771 5.9716 4.828 1.4059 2.6498 1.4301 43.069 0.0268 44.76-1.6055 1.9346-2.6785 1.7704-3.4057-0.52094zm-265.52-106.58c0.01-1.79 7.94-10.49 9.57-10.49 0.73171 0-3.6961 6.0669-7.2908 9.9898-2.1094 2.3019-2.2812 2.3397-2.2775 0.5zm8.0278-1.7398c0.0422-1.6607 6.7556-8.296 7.5698-7.4818 0.35009 0.35009-0.12304 1.3961-1.0514 2.3245-0.92837 0.92836-2.3837 2.7498-3.2341 4.0476-1.6738 2.5545-3.3353 3.1159-3.2844 1.1097zm14.852-0.53232c1.9873-3.7133 10.173-10.616 10.083-8.5029-0.0584 1.372-8.5811 10.285-9.8346 10.285-0.84355 0-0.91771-0.5319-0.24851-1.7823zm9.12 0.42c0-0.74974 2.3312-3.5437 5.1804-6.2088 6.7672-6.3299 7.8213-4.029 1.2232 2.6699-5.0095 5.086-6.4036 5.8564-6.4036 3.5389zm-37.21-0.17391c-0.80293-0.81014 1.2131-4.8484 4.1-8.2129 2.9973-3.4931 3.4685-2.6601 0.98992 1.75-1.2365 2.2-2.5823 4-2.9907 4-0.40839 0-0.88803 0.71537-1.0659 1.5897-0.17782 0.87434-0.64287 1.2673-1.0334 0.87322zm21.21-0.54c0-0.5877 2.025-3.152 4.5-5.6984 4.3221-4.4468 6.3664-4.5351 2.75-0.11881-4.7653 5.8194-7.25 7.813-7.25 5.8172zm-26.307-2.9912c2.2645-3.8354 6.3065-7.7197 6.3065-6.0603 0 0.6757-1.3479 2.6666-2.9954 4.4243s-2.9975 3.5333-3 3.9458c-0.003 0.4125-0.48007 0.75-1.0612 0.75-0.58109 0-0.24359-1.3769 0.75-3.0598zm-5.69 0.21c0-0.62322 0.88189-2.149 1.9598-3.3907s2.6386-3.1576 3.4682-4.2576c0.82964-1.1 1.5184-1.55 1.5305-1 0.0122 0.55-1.5485 2.9758-3.4682 5.3907s-3.4903 3.8808-3.4903 3.2576zm61-1.192c0-0.57401 1.125-2.2569 2.5-3.7398 2.9745-3.2079 3.4688-0.95763 0.55644 2.5334-2.04 2.44-3.06 2.84-3.06 1.21zm-170 202.57c0-1.7231-0.88705-2.933-2.9216-3.9852-3.3416-1.728-4.5318-0.46711-2.7936 2.9595 2.0844 4.109 5.7152 4.7606 5.7152 1.0257zm9.1284 0.0479c2.5456-0.77261 5.4706-1.8293 6.5-2.3482 2.24-1.13 11.77-4.23 13.01-4.23 0.4818 0 2.1089 1.1432 3.6158 2.5405 3.0164 2.797 3.4274 2.2863 1.2398-1.5405-0.78602-1.375-1.4451-3.4967-1.4646-4.7148-0.0787-4.9203-5.7377-5.3994-20.351-1.7232-14.182 3.5678-13.321 3.1189-10.965 5.7141 1.1102 1.2231 2.3112 3.4614 2.6688 4.9739 0.35766 1.5125 0.75422 2.7451 0.88124 2.7392 0.12702-0.006 2.3137-0.64296 4.8593-1.4156zm-85.732-4.1639c0.33563-0.87464 0.34503-2.0194 0.0209-2.5438-0.32413-0.52446-0.10882-1.5325 0.47847-2.2402 1.5984-1.926-7.7569-9.7999-13.295-11.19-1.4302-0.35895-2.6145-0.94135-2.6319-1.2942-0.07617-1.5464-5.1793-6.3228-5.9029-5.5249-3.2816 3.6185-2.0612 7.0957 4.9971 14.239 10.171 10.293 14.747 12.689 16.334 8.5545zm-6.691-5.67c-6.1256-7.596-7.3338-10.626-1.9027-4.7722 4.2463 4.577 7.0395 9.0222 5.6694 9.0222-0.18669 0-1.8817-1.9125-3.7668-4.25zm506.34 3.6967c4.2456-5.1156 0.0482-14.828-4.3397-10.042-5.3036 5.7854-5.3054 5.7949-1.8 9.6664 2.0163 2.2269 4.4782 2.3775 6.1397 0.37554zm-436.6-2.56c0.5225-0.48819 1.8725-0.91401 3-0.94629 1.1275-0.0323 6.325-1.3124 11.55-2.8447l9.5-2.786-0.31709-6.4053c-0.46143-9.3207-2.8801-18.82-5.7501-22.582l-2.5049-3.284-6.3632 6.7454c-3.4998 3.7099-7.2357 7.8228-8.302 9.1396-2.7704 3.4213-4.928 1.8191-2.3762-1.7645 1.0575-1.4851 2.6924-5.0535 3.6332-7.9298 1.8965-5.7984 2.7526-6.8412 1.8303-2.2296-0.85946 4.2973 1.2438 3.8371 6.5307-1.4287l4.3807-4.3633-3.3484-4.1666c-2.8796-3.5832-3.5083-3.9478-4.4909-2.604-0.63 0.85-1.65 1.55-2.28 1.55s-1.14 0.4-1.14 0.89c0 0.49051-2.025 3.1441-4.5 5.8969s-4.5 5.4832-4.5 6.0677c0 1.093-5.0025 6.1435-6.0851 6.1435-0.96647 0 4.6062-10.519 6.6917-12.631 1.0414-1.0547 2.7507-3.5339 3.7986-5.5092 1.3108-2.4711 2.4376-3.4523 3.6121-3.1452 1.8539 0.4848 3.5043-2.2744 1.9391-3.2418-0.53-0.32-0.96-0.11-0.96 0.47s-0.45 1.06-1 1.06-1-1.0995-1-2.4433c0-2.4685-3.5986-5.9228-5.163-4.956-0.46037 0.28452-0.83703 1.3908-0.83703 2.4583s-0.45585 1.941-1.013 1.941-1.9815 2.1375-3.1652 4.75-3.527 7.6568-5.2074 11.21c-5.69 12.02-5.32 21.04 0.86 21.04 3.4708 0 5.5559-1.4555 3.2801-2.2896-0.90667-0.33229-0.95493-0.78258-0.17345-1.6182 1.4496-1.55 4.5215-0.27623 4.1849 1.7353-0.15836 0.94643 0.54923 1.7328 1.7323 1.9252 8.2404 1.3398 8.9434 3.2106 1.25 3.3263-5.3275 0.0801-5.4027 0.27198-0.52743 1.3458 2.4524 0.54012 2.6625 0.92097 2.1178 3.8375-0.86229 4.6163-1.9662 5.3585-2.6778 1.8003-1.1749-5.8744-6.8603-4.4262-6.4673 1.6473 0.3768 5.8225 6.0296 8.1255 10.255 4.1778zm7.7661-16.625c2.794-1.7327 4.1837-4.3559 5.2983-10.001 1.155-5.8495 2.5438-4.6979 2.096 1.738-0.50322 7.2316-2.4596 10.013-7.0154 9.9739l-3.095-0.0266 2.7161-1.6844zm453.3 10.19c14.63-6.47 49.48-40.37 49.48-48.13 0-0.71536 1.3182-2.4752 2.9293-3.9107s2.7157-3.1669 2.4545-3.8475c-0.26116-0.68059 0.22063-1.8146 1.0707-2.5201 0.85003-0.70546 1.5455-2.101 1.5455-3.1012s0.45734-2.1012 1.0163-2.4466c1.3025-0.80501 0.28486-2.4899-1.5039-2.4899-1.8965 0-4.6652 2.9437-3.9132 4.1605 0.33968 0.54961-0.33119 1.6638-1.4908 2.4761-1.1596 0.81223-2.1084 1.9848-2.1084 2.6056 0 0.62087-0.96259 2.1535-2.1391 3.4058s-2.639 3.165-3.25 4.2503c-11.82 20.996-32.388 36.558-58.786 44.479-1.4537 0.43619-1.525 1.0056-0.54009 4.3128 1.7716 5.9483 3.325 6.0261 15.227 0.76245zm-390.69 1.009c4.4217-1.3131 5.1815-1.8996 5.1815-4 0-2.7279-1.3311-3.0514-5.6849-1.3816-1.5483 0.59382-5.4784 1.3813-8.7335 1.75-6.379 0.72249-7.9978 2.1844-4.3598 3.9372 3.2479 1.565 7.6293 1.4665 13.597-0.30566zm659.21-1.8182c0.0167-0.62865 0.48908-0.35551 1.0497 0.60699 1.1005 1.8894 4.4231 2.3628 5.4072 0.77048 0.38516-0.6232 1.2695-0.56476 2.4311 0.16064 6.9172 4.3199 31.309-27.105 33.517-43.181l0.618-4.5-3.1806 6c-18.192 34.319-41.177 32.075-54.233-5.2947-8.9975-25.753-6.2146-55.072 7.7383-81.527 2.5424-4.8204 4.6294-9.7576 4.6378-10.972 0.0196-2.8302 0.81662-3.866 4.3922-5.7087 1.5992-0.82413 3.1141-2.2859 3.3666-3.2484 0.52378-1.9966 3.1651-2.3915 3.3441-0.5 0.0651 0.6875 0.40258-0.0745 0.75-1.6933 0.77901-3.6298 2.3089-3.8929 3.2369-0.5567l0.6954 2.5 0.0997-2.711c0.25472-6.9278 7.9239-8.8135 9.3091-2.289 0.27083 1.2757 0.71126 0.41665 1.2161-2.372 0.55699-3.0766 1.3641-4.5217 2.7239-4.8773 2.407-0.62945 1.9154-2.3872-1.0904-3.8988-1.5169-0.76279-3.3339-0.84668-5.4144-0.25-1.7222 0.49394-5.4417 0.89807-8.2655 0.89807-3.3438 0-5.5683 0.52309-6.379 1.5-0.68469 0.825-1.8689 1.5-2.6316 1.5-0.76266 0-2.6987 1.2375-4.3023 2.75-4.6809 4.415-7.0264 6.25-7.9887 6.25-1.2911 0-6.0775 5.9015-6.0775 7.4934 0 0.73697-0.38835 1.4899-0.863 1.6733-12.52 4.8359-24.56 73.869-17.325 99.333 7.4262 26.135 17.234 39.651 23.411 32.259 1.7702-2.1186 2.7325-2.7126 2.75-1.6976 0.0148 0.85879-0.8731 2.5275-1.9731 3.7082-2.3534 2.5261-2.5776 4.2304-0.55654 4.2304 0.79391 0 2.2409-1.35 3.2156-3 2.0487-3.4681 3.3409-3.8582 3.3409-1.0085 0 1.0953-0.9 2.5536-2 3.2405-2.6542 1.6576-2.5372 4.22 0.25 5.4773 2.5312 1.1418 4.7347 0.65028 4.7804-1.0663zm-786.22-2.5589 3.1469-3.9159-5.659-4.8341c-3.1125-2.6588-6.5908-5.9033-7.7295-7.21-1.1388-1.3068-3.515-4.0068-5.2805-6l-3.218-3.62-1.7899 2.4028c-5.6251 7.5511-6.5113 11.396-3.0399 13.189 2.3155 1.196 7.6417 4.9688 15.033 10.648 5.2168 4.0087 4.7515 4.0445 8.529-0.65616zm-12.07-10.62c-1.512-1.78-2.75-3.74-2.75-4.35s-0.353-1.11-0.784-1.11c-0.43142 0-1.6314-1.4625-2.6667-3.25l-1.8823-3.25 2.3129 2c2.3332 2.0175 9.4734 12.442 8.8543 12.927-0.18357 0.14384-1.5713-1.1927-3.0838-2.9702zm500.16 9.8711c1.9769-1.4694 3.7381-2.7756 3.9137-2.9026 0.68-0.5-2.19-8.43-3.05-8.43-0.50135 0-2.8722 1.3489-5.2685 2.9976l-4.3569 2.9976 1.6767 3.9922c1.9886 4.7348 2.4092 4.8144 7.0824 1.3408zm62.15-0.30547c14.181-3.1402 30.796-7.3534 44.945-11.397 4.675-1.336 11.151-2.97 14.392-3.631 5.9562-1.2151 6.2353-2.9462 0.48044-2.9798-1.4453-0.008-4.2298-0.68466-6.1878-1.5028-3.4621-1.4466-7.8695-1.2822-12.184 0.4545-1.1 0.44273-3.8 1.2706-6 1.8398-2.2 0.56914-5.8522 1.5204-8.116 2.114-5.0828 1.3326-11.156 1.4362-9.834 0.16766 0.80435-0.77176 5.1767-1.87 23.2-5.8276 1.2375-0.27173 2.25-0.89159 2.25-1.3775 0-1.1461-3.9144-1.1312-7.6008 0.029-5.152 1.6214-21.901 4.3322-23.929 3.8731-2.9615-0.67025 1.335-2.2878 10.03-3.7763 10.936-1.872 14.669-3.0042 14.227-4.3152-0.5725-1.6986 2.3015-3.6249 5.4641-3.6622 1.48-0.0175 2.9691-0.4818 3.309-1.0318 0.33992-0.55 2.504-1.0432 4.809-1.096s6.441-0.70023 9.191-1.4387l5-1.3427-5 0.33404c-2.75 0.18373-8.6 1.0114-13 1.8392-4.4 0.82785-10.925 1.7852-14.5 2.1274-7.306 0.69937-15 2.6296-15 3.7632 0 0.41236-1.087 1.3266-2.4155 2.0317-1.3286 0.70507-5.9432 4.6569-10.255 8.7819-4.3116 4.125-10.875 9.9411-14.584 12.925-9.3437 7.5143-9.0259 7.6013 11.31 3.0982zm29.53-12.43c5.18-1.63 12.41-2.62 12.41-1.7 0 1.0737-8.5781 3.1203-12.764 3.0454l-3.7356-0.0669 4.0876-1.2796zm-614.59 6.79c0-1.63 10.302-22.64 12.212-24.92 10.013-11.93 28.388-25.46 34.577-25.46 0.666 0 1.211-0.45 1.211-1 0-1.224 0.23724-1.2435-4 0.32902-9.6096 3.5663-15.043 7.0853-23.75 15.382-5.0875 4.8477-9.25 9.3158-9.25 9.9292 0 0.61336-0.71071 1.705-1.5794 2.426-3.554 2.95-12.388 23.63-12.357 28.93 0.01327 2.2795 0.1434 2.2032 1.4754-0.86481 0.804-1.86 1.461-4 1.461-4.76zm139 0.67378c0-3.6655-2.4475-13.243-4.1951-16.417-0.7177-1.3034-2.3361-4.2473-3.5964-6.5422-7.6175-13.87-31.554-29.991-44.659-30.077-3.3296-0.0218-0.43344 1.5039 8.3739 4.4113 4.6332 1.5295 8.969 3.3259 9.6351 3.9921 0.66614 0.66614 4.411 3.6514 8.3218 6.634 12.735 9.712 21.601 23.744 23.821 37.7 0.64565 4.0589 2.2982 4.2738 2.2982 0.29879zm-80.07-1.3c-0.13025-6.0232-1.7818-7.7996-1.8594-2-0.0387 2.8875 0.37971 5.25 0.92971 5.25s0.96837-1.4625 0.92971-3.25zm-12.93-2.64c0-2.5905-6.6434-12.948-8.375-13.058-0.48125-0.0304-0.60053 1.3171-0.26506 2.9945 1.1376 5.6879-1.0273 2.0695-3.7453-6.2599-1.488-4.56-3.598-9.41-4.689-10.79l-1.9835-2.5-4.9713 5.4404c-5.6973 6.2349-6.0719 7.9782-2.2054 10.262 1.5212 0.89862 6.0882 4.8206 10.149 8.7156 7.573 7.26 9.085 8.19 9.085 5.58 0-2.6128 1.7619-1.6217 2.8949 1.6284 1.318 3.78 4.105 2.41 4.105-2.02zm101.53 0.14c-0.38493-2.6125-1.9615-8.575-3.5036-13.25-2.6584-8.0595-3.5337-10.381-6.616-17.55-10.94-25.43-70.23-46.07-99.41-34.61-3.025 1.1879-6.4859 2.16-7.691 2.1603-1.205 0.00027-2.4477 0.41588-2.7615 0.92356-0.31377 0.50769-1.9231 1.2202-3.5764 1.5833-8.132 1.78-28.505 18.21-36.578 29.49-4.692 6.56-9.921 16.81-9.029 17.7 0.349 0.35 0.635-0.12 0.635-1.03 0-0.92 0.37-1.67 0.823-1.67 0.45251 0 1.8118-1.9804 3.0207-4.401 2.8348-5.6761 5.5647-7.0263 4.7476-2.3481-0.31211 1.787-0.28029 2.574 0.0707 1.749 0.351-0.825 0.91078-1.725 1.244-2 0.33319-0.275 3.9326-4.6534 7.9987-9.7298 7.0625-8.8173 9.9027-11.126 12.054-9.796 0.53686 0.3318 4.3776-1.7767 8.5349-4.6854 13.505-9.45 26.191-15.44 28.28-13.35 0.308 0.31-0.153 0.56-1.024 0.56-0.87083 0-1.7333 0.36666-1.9167 0.8148-0.183 0.45-2.133 1.55-4.333 2.45-4.9468 2.0204-1.9763 2.2875 3.2298 0.29048 6.0576-2.3237 23.2-4.564 33.89-4.429 8.8434 0.11165 9.3226 0.20601 4.5653 0.89873-6.0283 0.8778-7.9632 1.9589-3.6013 2.0121 8.3278 0.10171 24.412 5.8519 35.25 12.602 19.831 12.351 26.41 21.519 33.092 46.112 1.6129 5.9357 3.4967 5.5736 2.6018-0.5zm-78.865 0.56762c1.133 4.3325 2.1118 0.97312 2.783-9.5522 0.37763-5.921 1.1184-14.766 1.6462-19.656 1.6299-15.101-1.4895-10.335-4.5102 6.8909-0.96444 5.5-2.3298 11.125-3.0342 12.5-3.12 6.0904-2.5358 13.939 0.73673 9.8974l1.8136-2.2397 0.56483 2.1599zm-15.66-1.93c0-1.0948 0.68656-3.3183 1.5257-4.941 1.3676-2.6446 1.3676-3.2561 0-5.9007-0.84-1.62-1.53-3.38-1.53-3.9 0-0.52117-1.1623-2.906-2.583-5.2997l-2.586-4.35 0.58244 12.397c0.54637 11.629 1.6127 15.821 3.6968 14.533 0.48768-0.3014 0.88669-1.4438 0.88669-2.5386zm491.66-0.80099c12.789-4.2094 29.632-14.137 19.796-11.669-1.3993 0.35121-5.7868 1.073-9.75 1.6039-3.9632 0.53092-9.0058 1.4066-11.206 1.946-2.2 0.53938-5.4359 0.99142-7.191 1.0045-4.1371 0.0309-4.8477 1.3616-3.2738 6.1304 1.5348 4.6504 0.69941 4.5797 11.625 0.98375zm-26.559 0.35731c4.021-2.0794 5.1149-5.1804 3.068-8.6976-1.53-2.63-3.17-3.64-3.17-1.95 0 0.43944-1.7879 1.9019-3.9731 3.25-4.4282 2.7318-4.7176 3.52-2.4702 6.7285 1.8478 2.638 2.5918 2.7142 6.5446 0.67015zm200.55-3.0004c29.15-8.38 44.35-13.53 44.35-15.03 0-2.3325-3.7896-1.6504-17.5 3.1501-7.15 2.5034-18.175 5.8311-24.5 7.3948s-14.182 3.562-17.46 4.4406c-3.278 0.87861-7.189 1.5975-8.691 1.5975-2.7559 0-4.3345 1.1811-3.1551 2.3605 1.8168 1.8168 12.312 0.29329 26.956-3.9133zm-656.12-3.1239c1.3578-1.3578 1.5593-2.8319 1.0595-7.75-1.1435-11.253-1.482-17.268-0.76847-13.653 0.85558 4.3348 2.9002 5.0988 3.7482 1.4005 0.35579-1.5516 1.5355-5.8398 2.6216-9.5294 2.8717-9.7554 1.0437-10.628-14.483-6.9122-10.366 2.4806-10.246 1.8281-3.5961 19.621 3.5541 9.5093 4.0034 9.034 4.9757-5.264 0.7285-10.712 1.4428-14.236 2.8856-14.236 1.2972 0 1.9524 9.4256 0.70863 10.194-1.94 1.19-2.29 27.8-0.37 27.8 0.84942 0 2.2989-0.7545 3.2211-1.6767zm259.2-9.5469c-0.21125-2.352-0.38706-0.67643-0.39069 3.7236-0.004 4.4 0.16921 6.3244 0.38408 4.2764 0.21488-2.048 0.21785-5.648 0.007-8zm-276.14 1.97c-2.2579-26.504-2.1199-26.17-8.8783-21.496-6.6661 4.6097-6.6259 4.84 4.1063 23.496 4.796 8.3371 5.6232 7.9904 4.7721-2zm468.37 3.2896c4.7165-4.6231 4.7263-4.67 1.7547-8.3835l-2.2758-2.8439-1.3882 2.5939c-0.76 1.42-1.68 2.59-2.03 2.59-3.4568 0-5.9013 5.9754-3.4482 8.4286 2.2411 2.2411 2.873 2.0368 7.3882-2.389zm317.79-5.29c1.73-1.7875 3.8758-4.825 4.7684-6.75 0.89262-1.925 2.5168-5.2361 3.6094-7.358 1.0925-2.1219 1.7459-4.0985 1.4519-4.3925-0.91172-0.91172-3.3055 1.6641-4.6779 5.0336-1.8021 4.4244-6.905 9.3153-6.905 6.618 0-1.0457 0.86594-2.7672 1.9243-3.8255 2.6192-2.6192 4.2919-5.9168 3.5831-7.0636-0.32177-0.52064 0.35111-1.5238 1.4953-2.2293 2.3331-1.4386 7.4844-9.6289 6.6076-10.506-0.83932-0.83932-10.684 9.7942-10.037 10.841 0.30455 0.49278-0.26229 1.2024-1.2596 1.5769-2.6663 1.0012-4.2456 3.4346-4.2816 6.5971-0.039 3.4271-1.8761 5.5613-4.2523 4.9399-1.1641-0.30441-1.7795 0.0937-1.7795 1.1513 0 0.88915 0.45 1.6166 1 1.6166s1 0.8632 1 1.9182c0 5.8747 3.1256 6.6132 7.7532 1.8318zm-285.33 1.643c2.1256-0.81567 2.4041-104.21 0.29193-108.38-1.3907-2.7486-3.4407-3.5006-5.6589-2.0758-2.3909 1.5358-2.125 109.45 0.2721 110.43 1.7292 0.70532 3.3122 0.7149 5.0949 0.0308zm22.272-2.7648c8.81-1.4327 9.9221-2.2231 16.378-11.641 1.4124-2.0604 4.8999-6.6767 7.75-10.258 2.8501-3.5818 5.182-7.1879 5.182-8.0136 0-0.82567 0.63786-1.746 1.4175-2.0452 0.91498-0.35112 1.3738-1.9002 1.2944-4.3698-0.0677-2.1042 0.24525-4.4218 0.69541-5.1502 0.45751-0.74028 0.36214-1.7806-0.21626-2.359-0.56909-0.56909-0.81421-1.6094-0.54469-2.3117 0.60629-1.58-1.2716-2.8947-2.1362-1.4956-0.35 0.56-1.73 1.02-3.07 1.02s-2.44 0.45-2.44 1-1.1516 1-2.559 1c-3.0839 0-2.2843 1.9491 0.86804 2.116 1.6918 0.0896 1.7923 0.2202 0.44098 0.57333-0.9625 0.25152-1.75 0.65543-1.75 0.89756 0 0.74491 2.4296 4.7592 3.75 6.1959 0.6875 0.74805 1.2433 2.3404 1.2351 3.5387-0.015 2.1977-6.8492-4.395-6.9476-6.702-0.0207-0.48431-1.5101-2.9593-3.3098-5.5-1.7998-2.5407-4.1312-6.6444-5.181-9.1194s-2.5192-5.0119-3.2652-5.6376c-0.74604-0.6257-1.2271-1.7109-1.069-2.4115 0.1581-0.70061-0.83754-1.6063-2.2125-2.0127-1.6166-0.47777-1.8816-0.77407-0.75-0.83853 0.9625-0.0548 1.75-0.52851 1.75-1.0526 0-1.67-2.29-6.05-3.16-6.05-0.46 0-0.84-0.73-0.84-1.62 0-1.91-10.89-19.38-12.08-19.38-0.45111 0-0.52176 3.2625-0.15699 7.25 0.87614 9.5777 0.87317 11.138-0.09 47.33-0.82214 30.893-0.49041 38.438 1.6884 38.4 0.62629-0.011 4.8242-0.61933 9.3286-1.3518zm-13.7-0.88c-0.0267-2.4456-1.2252-5.7204-1.9333-5.2828-0.99467 0.61474-0.034 6.5328 1.0605 6.5328 0.48757 0 0.88036-0.5625 0.87285-1.25zm-473.98-12.53c1.2148-2.598 2.8337-5.0834 3.5977-5.5232 2.1693-1.2489 1.6706-2.3631-2.1008-4.694-5.9707-3.6901-6.4492-2.9837-6.8988 10.183-0.43322 12.687 0.12403 15.153 1.9938 8.8202 0.65975-2.2344 2.1934-6.1882 3.4082-8.7861zm445.91-8.97c-0.2348-52.072-1.5679-69.998-4.9536-66.612-1.0011 1.0011-1.4751 53.627-0.56619 62.862 0.21655 2.2-0.0555 6.2509-0.60458 9.002-0.92655 4.6425-0.79843 5.3072 1.783 9.25 4.2121 6.4334 4.4325 5.697 4.3414-14.502zm-193.92 16.09c0-2.362 23.996-26.319 32.099-32.046l6.7758-4.7894 0.54392-7c1.9943-25.665 1.0802-97.198-1.2741-99.711-0.36623-0.3909-10.563-0.92236-22.659-1.181-12.096-0.25867-23.229-0.94021-24.739-1.5145-2.7354-1.04-2.746-1.0271-2.6305 3.181 0.0638 2.3239 0.3218 3.4378 0.57333 2.4752 2.3732-9.0813 8.0061 18.135 8.2271 39.75 0.15466 15.126 1.0489 16.948 5.0836 10.359 1.375-2.2457 3.2031-4.904 4.0624-5.9075s2.4343-3.0282 3.5-4.4994c3.8244-5.2797 5.3716-6.9325 5.4044-5.7731 0.0183 0.64822-0.57139 1.7832-1.3104 2.5223-0.73903 0.73903-2.4906 3.1337-3.8924 5.3214-1.4018 2.1878-3.3846 4.9023-4.4063 6.0323-3.1041 3.4333-8.3576 12.488-8.3576 14.406 0 2.1071 2.9819 0.95545 4.428-1.7102 0.82054-1.5125 1.5099-2.1575 1.5319-1.4333s-1.1255 2.8448-2.5501 4.7126c-5.0558 6.6285-3.9744 16.212 1.1113 9.8482 1.2648-1.5826 2.5498-2.6301 2.8556-2.3277 0.30584 0.30237-0.99519 2.3274-2.8912 4.5-3.5149 4.0278-3.7583 4.6957-3.626 9.9502 0.0415 1.65 0.1373 7.6125 0.21279 13.25 0.14744 11.009 0.64879 11.899 4.0857 7.25 2.1117-2.8562 3.8435-3.8708 3.8405-2.25-0.00077 0.4125-1.8001 2.775-3.9986 5.25-3.1512 3.5476-3.9975 5.2937-3.9986 8.25-0.002 5.0831 0.85142 4.7785 7.35-2.6235 3.0776-3.5054 7.07-7.8956 8.8721-9.7558 1.8021-1.8603 5.4733-5.9828 8.1584-9.1613 2.685-3.1784 5.0934-5.5674 5.352-5.3088 0.73741 0.73741-4.2738 6.903-16.248 19.991-0.55779 0.60968-3.4828 4.0335-6.5 7.6085s-5.8233 6.65-6.2358 6.8333c-0.4125 0.18334-0.75 1.4208-0.75 2.75 0 3.6283 0.68343 3.1952 11.33-7.179 15.763-15.361 13.463-11.332-3.7656 6.5957-6.9247 7.2056-10.335 15-6.5639 15 0.55 0 1-0.74883 1-1.6641zm0-43.213c0-0.48265 0.75136-1.4952 1.6697-2.25 0.91832-0.75484 5.0647-5.6474 9.2142-10.872 4.1495-5.225 8.0106-10.003 8.5803-10.617 2.0234-2.1821 5.1089-5.9351 7.942-9.6602 1.58-2.0775 3.0791-3.5708 3.3314-3.3185 0.40963 0.40963-1.8865 3.7387-8.991 13.036-7.98 10.43-21.75 25.42-21.75 23.67zm18.033-8.6499c-0.0329-1.0151 2.4065-4.9227 4.4258-7.0895 2.2054-2.3666 5.156-5.9853 6.8127-8.3555 0.95052-1.3599 1.7282-1.8924 1.7282-1.1833 0 1.1774-2.9089 5.4901-7.174 10.636-0.92071 1.1108-2.5932 3.1447-3.7167 4.5197s-2.0577 2.0376-2.076 1.4725zm-4.03-19.7c0-0.88916 0.35614-1.7667 0.79142-1.95 0.43528-0.18333 2.073-2.0331 3.6394-4.1106s3.0645-3.5607 3.3291-3.2961c0.26461 0.2646-1.0032 2.4144-2.8174 4.7772-4.78 6.23-4.94 6.38-4.94 4.58zm-6.96-1.28c-0.0139-0.55 1.5458-2.6575 3.466-4.6832 1.9202-2.0258 3.4913-3.9704 3.4913-4.3214 0-0.35101 0.675-1.3132 1.5-2.1382 1.1529-1.1529 1.4996-1.1942 1.4982-0.17857-0.002 1.5376-9.9178 12.814-9.9556 11.321zm0.91698-15.941c1.7782-2.5846 3.5142-4.4181 3.8578-4.0745 0.34356 0.34355 0.18768 0.93768-0.34639 1.3203-0.53407 0.3826-1.723 2.0338-2.642 3.6693-0.91905 1.6355-2.2181 3.156-2.8867 3.3789-0.66865 0.22288 0.23918-1.7094 2.0174-4.2939zm-5.9328-11.203c0.0426-1.3555 5.9163-7.9851 5.9462-6.7115 0.0148 0.62934-1.3231 2.5894-2.9731 4.3558-1.65 1.7663-2.9879 2.8264-2.9731 2.3558zm275.42 100.54c2.989-0.82984 3.5743-1.303 2.4146-1.952-1.8749-1.0493-7.0812 0.22227-7.6281 1.863-0.48967 1.469 0.20042 1.4808 5.2135 0.089zm50.55-3.37l6.5-1.3766-7.5 0.54946c-4.125 0.30221-8.175 0.929-9 1.3929-2.3252 1.3074 2.4241 1.0387 10-0.56573zm164.96 0.0137c1.9857-2.3926 0.24594-3.7272-2.5072-1.9233-2.4558 1.6091-2.4662 3.3795-0.0199 3.3795 0.7252 0 1.8624-0.65529 2.5271-1.4562zm-504.02-4.29c-0.0531-3.9762-0.21569-4.37-0.99832-2.4174-0.82984 2.0704-0.35329 7.1674 0.67012 7.1674 0.21537 0 0.36307-2.1375 0.3282-4.75zm411.73 2.9598c1-0.52 6.33-2.16 11.83-3.64 10.994-2.9616 12.571-3.5846 12.827-5.0654 0.38475-2.2268-7.4821-1.7031-10.004 0.666-2.5791 2.4229-3.7375 2.5104-23.323 1.7604-4.5238-0.17323-7.5641 0.2711-10 1.4614l-3.5 1.7103 4.5-0.43721c2.475-0.24047 3.9375-0.22504 3.25 0.0343-1.5176 0.57244-1.6755 3.3048-0.19098 3.3048 0.58246 0 0.80991 0.40307 0.50544 0.8957-0.72073 1.1662 11.693 0.56238 14.101-0.68588zm-47.17-3.58c13.438-2.5414 16.615-3.3479 17.78-4.513 1.4148-1.4148 1.9156-1.4666-9.2804 0.96035-5.225 1.1326-10.85 2.3095-12.5 2.6153s-3.5428 0.98821-4.2062 1.5165c-0.6634 0.52825-1.5745 0.73282-2.0247 0.45459-0.45018-0.27823-2.3824-0.11216-4.2938 0.36903-5.6993 1.4348 4.9687 0.40452 14.525-1.4027zm32.246-7.3714c0.45116-1.3535-4.0874-2.7864-5.6894-1.7963-0.58126 0.35924-1.0568 1.4698-1.0568 2.4678 0 2.1002 6.0222 1.5008 6.7463-0.67154zm-389.75-3.82c0-2.7847-0.38919-4.3185-1-3.941-0.55 0.33992-1 2.3915-1 4.559s0.45 3.941 1 3.941 1-2.0516 1-4.559zm452.28-15.19c1.092-36.573 12.309-68.351 29.376-83.227 4.5086-3.9296 0.25192-3.9121-4.712 0.0194-7.5807 6.004-13.464 16.699-20.525 37.311-1.2914 3.7695-2.8016 7.4003-3.3561 8.0684-2.9357 3.5373-4.8735 30.709-3.418 47.927 1.0649 12.598 2.0728 8.7358 2.6351-10.099zm-6.35-36.25c3.7592-19.721 9.9152-34.482 17.917-42.962 5.6325-5.969 6.1244-7.038 3.2381-7.038-5.777 0-19.425 26.334-23.062 44.5-0.66083 3.3-1.6411 8.0759-2.1784 10.613-1.3299 6.2798-1.5715 33.992-0.36088 41.387 0.869 5.3082 1.0556 3.6365 1.6182-14.5 0.45551-14.682 1.2581-23.763 2.8281-32zm51.437 49.927c1.4492-1.1399 2.6349-2.5799 2.6349-3.2 0-0.79624-0.3525-0.77492-1.2 0.0726-2.3608 2.3608-7.4406 1.4159-10.234-1.9036-2.9316-3.484-5.5662-2.7008-5.5662 1.6547 0 5.4696 9.0114 7.5877 14.365 3.3764zm11.83-1.6145c3.1-2.98 3.53-4.32 1.37-4.32-1.44 0-5.57 4.54-5.57 6.13 0 1.5119 1.3087 0.94356 4.1953-1.822zm-783.2-2.82c3.025-0.81194 8.425-1.5593 12-1.6607l6.5-0.18447-6.5-0.5774c-6.961-0.61835-15.137 0.66-17.16 2.683-1.54 1.54-1.54 1.54 5.16-0.26zm776.89-1.9323c0.61-0.38 1.11-1.88 1.11-3.33 0-2.0244-0.2746-2.3664-1.1762-1.4648-0.8026 0.8026-1.563 0.85516-2.394 0.16548-0.846-0.70212-1.6864-0.54218-2.7524 0.52379-2.536 2.536-3.9988 1.8917-3.3274-1.4655 0.62353-3.1176-0.48453-3.8341-3.2354-2.092-1.609 1.019-0.88435 5.1795 1.2789 7.3428 1.4082 1.4082 8.3901 1.619 10.497 0.317zm-452.02-3.07c2.6794-1.925 5.3805-3.5 6.0023-3.5 0.62181 0 1.1306-0.45 1.1306-1s0.7875-1.0355 1.75-1.079c1.1822-0.0533 1.3162-0.25201 0.41284-0.61239-1.7168-0.68489-8.6906 2.9101-13.048 6.7264-4.664 4.0846-2.1857 3.7312 3.7526-0.53511zm472.13 1.57c0-0.51294-0.87698-1.211-1.9488-1.5512-2.1397-0.67911-2.5769-1.7581-3.5144-8.6731-0.50936-3.7569-0.15678-5.6406 1.8244-9.7475 2.6522-5.4977 2.213-6.77-1.7187-4.9786-6.44 2.93-6.95 22.88-0.58 22.88 0.94822 0 1.983 0.675 2.2996 1.5 0.62339 1.6245 3.6384 2.0947 3.6384 0.56739zm-444.05-4.7608c7.6977-4.0175 12.348-7.6889 5.7946-4.5745-1.2367 0.58768-4.2735 1.968-6.7485 3.0674-4.0783 1.8116-10.217 6.2004-8.6724 6.2004 0.34849 0 4.6803-2.112 9.6263-4.6934zm205.07 2.1692c0.69572-0.83829 0.95423-1.8349 0.57448-2.2146-0.83409-0.83408-3.8203 0.9161-4.3684 2.5602-0.56969 1.7091 2.3061 1.4471 3.7939-0.34561zm244.69-5.3548c0.37-2.73 0.17-4.13-0.58-4.13-0.62 0-1.13 1.26-1.13 2.8s-0.50079 3.3008-1.1129 3.9129c-0.61207 0.61207-0.78628 1.6413-0.38713 2.2871 1.1586 1.8746 2.5982-0.31315 3.2106-4.8789zm-240.86-2.38c3.5166-8.389 8.6256-29.028 7.9955-32.3-1.232-6.3971-4.3552-1.9028-5.9419 8.5502-1.6424 10.82-5.4119 24.576-7.004 25.56-1.6183 1.0002-0.94963 2.4395 1.1334 2.4395 1.4486 0 2.5492-1.2254 3.8171-4.25zm100.67 2.2264c1.404-1.5514 1.5568-2.2982 0.65499-3.2-0.64-0.65-1.17-1.99-1.17-2.98 0-2.6796-2.0033-2.1892-5.7024 1.3962-4.9577 4.8052-4.5753 5.5768 3.2974 6.654 0.60226 0.0824 1.9191-0.7608 2.9264-1.8738zm-8.8747-7.089c8.69-7.87 9.43-8.89 6.53-8.89-1.92 0-17.18 13.48-17.18 15.17 0 2.2466 3.5224 0.16719 10.647-6.2852zm48.168 4.8626c0.28359-1.497-0.47425-1.75-5.2418-1.75-4.167 0-5.5733 0.36096-5.5733 1.4304 0 2.876 10.273 3.1795 10.815 0.31955zm-203.38-52.7c-1.647-1.6062-1.2435 50.892 0.41075 53.447 0.35603 0.55 0.76747-10.901 0.91432-25.447 0.23323-23.103 0.0657-26.644-1.3251-28zm183.22 48.88c0.55-2.74 6.1-9.93 7.67-9.93 0.42835 0 2.2169-1.3874 3.9746-3.083l3.1958-3.083-4.2053 2.0806c-5.26 2.6-17.29 14.36-17.29 16.9 0 2.4457 6.128-0.20816 6.6635-2.8858zm-140.19 0.0814c5.4737-2.4936 4.9853-4.3568-0.79999-3.052-4.391 0.99034-4.029 0.0535 0.5915-1.5306 5.1087-1.7514 4.8529-3.8502-0.37837-3.1045l-4.383 0.62476 3.55-1.6244c4.8-2.19 5.39-8.32 0.81-8.32-1.5075 0-2.9676 0.36675-3.2447 0.81499-0.27703 0.44825-3.2286 1.6857-6.559 2.7498-5.8106 1.8566-7.6625 3.8812-4.6185 5.0494 0.79027 0.30326 1.2096 1.1436 0.93182 1.8675-0.27776 0.72385-0.017 1.6177 0.57946 1.9863 0.59647 0.36863 0.85041 1.049 0.56433 1.5119-0.28609 0.4629 0.49407 1.9905 1.7337 3.3947 2.5637 2.9041 4.1701 2.8525 11.224-0.36084zm-6.0288-11.546c1.0676-0.80751 3.0926-1.4654 4.5-1.462l2.5589 0.006-2.8643 1.4938c-3.9187 2.0438-6.911 2.0167-4.1946-0.038zm-150.44 11.47c5.225-0.61552 13.226-0.87171 17.78-0.56931 4.5541 0.3024 8.0411 0.16288 7.7488-0.31004-0.81872-1.3247-9.6489-4.0911-10.796-3.3822-0.55938 0.34572-4.4407 1.0439-8.6251 1.5514-4.1844 0.50757-9.4081 1.1421-11.608 1.41-2.2 0.26795-4.9 0.87874-6 1.3573s-2.675 1.1273-3.5 1.4417c-0.825 0.31434 0.075 0.35749 2 0.0959 1.925-0.26161 7.775-0.97925 13-1.5948zm418-0.86c0-3.27-1.87-7.07-3.48-7.07-1.9549 0-1.9696 2.3859-0.0248 4 0.825 0.68469 1.5 2.0898 1.5 3.1224 0 1.0327 0.45 1.8776 1 1.8776s1-0.87071 1-1.9349zm-100.92-3.3803c-0.66666-0.66666-1.5299-0.56021-2.5897 0.31935-1.2357 1.0255-1.3083 1.4933-0.32592 2.1004 1.6966 1.0486 4.2581-1.0773 2.9156-2.4198zm-322.08-2.19c3.268-1.2585 3.3253-1.3529 0.86481-1.4239-1.4494-0.0418-4.1494 0.58131-6 1.3848-4.5894 1.9925-0.0275 2.0273 5.1352 0.0391zm-114.05-27c-0.027-29.652-1.3467-56.3-2.8634-57.817-0.6-0.59-1.09-2.12-1.09-3.38 0-1.265-0.48032-2.3-1.0674-2.3-0.58706 0-0.82506 0.7875-0.52888 1.75 2.6648 8.6598 3.5894 22.82 3.6076 55.25 0.0127 22.645 0.35243 33.985 0.98871 33 0.56162-0.86904 0.95981-12.016 0.94664-26.5zm507.05 25.97c0-0.84227-0.68395-1.7938-1.5199-2.1146-0.92207-0.35383-1.4137-1.5786-1.25-3.1137 0.14843-1.3918-0.29262-2.7277-0.98012-2.9687-0.6875-0.24103-1.25 0.30642-1.25 1.2165 0 0.91011-0.69634 2.3511-1.5474 3.2022-1.3966 1.3966-1.3814 1.7308 0.15499 3.4286 2.0748 2.2926 6.3924 2.5289 6.3924 0.34977zm6-5.8276c0-1.2325-0.48341-2.7244-1.0742-3.3152-0.59084-0.59084-1.2082-2.2946-1.372-3.7862-0.34414-3.135-2.8768-6.076-4.4142-5.1258-0.57876 0.35769-0.7988 1.3109-0.48898 2.1183 0.30983 0.80738 0.0652 1.468-0.54367 1.468-1.6408 0-1.3421 4.56 0.39301 6 0.825 0.68469 1.5 1.8793 1.5 2.6547 0 1.4563 3.9226 3.4505 5.25 2.6689 0.4125-0.24288 0.75-1.45 0.75-2.6826zm-14.712-3.0814c4.3913-5.2534 4.6578-7.284 1.0739-8.1835-4.1179-1.0335-8.4533 5.6107-6.8851 10.552 0.92935 2.9281 1.6188 2.6471 5.8112-2.3683zm29.858-4.2754c-0.19445-2.6313-0.75695-5.5421-1.25-6.4684-0.5-0.92-0.9-2.86-0.9-4.3 0-1.5016-0.42948-2.3593-1.0037-2.0044-0.55202 0.34116-0.75537 1.6096-0.45188 2.8188 0.35842 1.4281-0.1796 2.9836-1.5353 4.4387-2.9298 3.1448-4.3829 2.859-3.6669-0.72102 0.70379-3.519-0.80086-4.9189-2.2921-2.1325-1.5294 2.8578-1.2846 7.0666 0.44983 7.7321 0.96199 0.36916 1.5 1.9121 1.5 4.302 0 4.9566 0.45005 5.2105 5.3314 3.0085 4.145-1.8698 4.1666-1.9077 3.8151-6.6647zm-265.15 6.72c0-0.55 0.84856-1 1.8857-1s3.1746-0.67223 4.75-1.4938c1.5754-0.82161 3.6252-1.4966 4.5553-1.5 2.0915-0.008 3.3546-1.8606 2.1139-3.1013-0.56115-0.56115-3.242 0.0131-6.8629 1.47-3.2681 1.315-7.2552 2.7811-8.8603 3.258-4.11 1.22-4.53 3.37-0.66 3.37 1.69 0 3.08-0.45 3.08-1zm8.6027-8.549c3.689-1.6142 6.5201-7.4953 3.5804-7.4376-1.3793 0.027-15.185 4.6554-15.84 5.3103-0.37196 0.37196-1.6138 0.66198-2.7596 0.64449-3.6462-0.0557 0.83617-2.6518 8.8345-5.1168 8.053-2.4819 10.128-3.7053 8.7027-5.1308-0.53033-0.53033-0.70129-1.6495-0.37991-2.487 0.32443-0.84543-0.18175-2.0829-1.138-2.7822-0.94728-0.69266-1.3204-1.5078-0.82921-1.8114 1.0659-0.65876 0.34819-6.64-0.79675-6.64-0.43798 0-4.9275 1.35-9.9767 3s-10.152 2.9478-11.34 2.884c-2.0128-0.10811-2.0237-0.14685-0.15982-0.56907 1.1-0.24919 3.9076-1.322 6.2391-2.384s4.8065-1.9408 5.5-1.9529c2.8482-0.0496 10.087-4.0518 9.105-5.0339-0.66633-0.66633-5.2554 0.36973-13.76 3.1066-12.222 3.9331-15.136 4.4524-12.358 2.2022 1.44-1.16 20.06-7.25 22.17-7.25 0.75108 0 1.9214-0.66968 2.6007-1.4882 1.7572-2.1173-0.95206-2.9901-5.1989-1.6749-22.299 6.9055-29.268 8.0833-16.738 2.8288l6.4466-2.7033-6.5 0.50583c-3.575 0.27821-5.825 0.25377-5-0.0543 0.825-0.30808 2.4-0.93968 3.5-1.4036 1.1-0.46388 2.9-1.0735 4-1.3548 11.429-2.9222 18.667-6.8868 15.083-8.262-0.87-0.34-1.58-1.26-1.58-2.05 0-2.36-4.24-7.35-6.25-7.35-1.0713 0-1.589-0.45616-1.2113-1.0673 0.3628-0.58702-0.24404-1.3036-1.3485-1.5924-1.1045-0.28883-2.2326-1.3835-2.507-2.4327-0.27-1.05-1.16-1.91-1.98-1.91-0.81765 0-1.7456-0.675-2.0622-1.5-0.31658-0.825-1.7147-1.5-3.107-1.5-1.64 0-2.53-0.56-2.53-1.58 0-0.87084-0.5625-1.3961-1.25-1.1672-0.85001 0.28295-1.2921 3.0493-1.3816 8.6449-0.11595 7.2485 0.0627 8.1482 1.5 7.552 2.9144-1.2089 8.5717-2.3999 11.132-2.3435 1.375 0.0303 2.05 0.19581 1.5 0.36779s-3.5371 1.0625-6.638 1.9789c-7.4949 2.215-9.7066 3.828-8.0257 5.8533 0.73699 0.88802 0.87107 1.76 0.32274 2.0989-0.9655 0.59671-1.8685 4.6847-2.796 12.657-0.47509 4.084-0.19605 4.9368 2.6773 8.1822 1.7642 1.9927 3.7143 4.4868 4.3336 5.5425 5.974 10.183 7.9311 13.224 9.1756 14.257 0.79774 0.66206 1.4504 2.0165 1.4504 3.0099 0 5.4026 4.2127 5.259 17.603-0.59999zm-13.6-18.02c1.4671-0.56504 2.6106-1.0208 8.297-3.307 3.3948-1.3648 4.703-1.422 4.703-0.20549 0 0.50545-2.1375 1.4324-4.75 2.0598-6.1812 1.4846-10.145 2.1825-8.25 1.4526zm-9.4188-24.413c0.53969-0.53969 2.5422-1.2385 4.45-1.5529l3.4688-0.57167-3.3648 1.5529c-3.8776 1.7896-6.0438 2.0615-4.5539 0.57168zm-7.58-1.88c0-1.1855 8.0019-4.1477 11.033-4.0843 1.999 0.0418 1.7083 0.3402-1.5334 1.5743-2.2 0.83753-4.7814 1.9393-5.7364 2.4485-2.1779 1.161-3.7636 1.187-3.7636 0.0616zm155.94 47.823c14.212-1.4584 15.449-2.0304 14.804-6.8441-0.99622-7.4274-2.635-8.6687-14.539-11.012-5.887-1.1589-13.404-2.7371-16.704-3.5071s-10.5-2.361-16-3.5356c-24.769-5.2897-35.177-12.887-41.914-30.595-13.96-36.69-25.82-48.95-63.59-65.79-13.48-6.012-16.06-6.531-14.08-2.831 0.59 1.111 1.08 3.571 1.08 5.461 0 1.9239 0.69992 4.0242 1.5862 4.7597 1.5577 1.2928 1.5351 2.6128-0.16082 9.3697-0.66093 2.6334-0.59613 2.6732 4.2017 2.5849 10.885-0.20034 17.309 2.1754 8.873 3.281-1.9904 0.26085-1.3173 0.46298 2 0.60063 6.3675 0.2642 14.107 1.7776 10.5 2.0533-2.3604 0.1804-2.3209 0.25665 0.70592 1.365 5.5952 2.0488 6.5298 4.0184 1.6157 3.405-3.3045-0.4125-4.0664-0.22977-3.643 0.87366 0.35711 0.93061 2.1648 1.3952 5.4284 1.3952 5.1752 0 6.8008 1.6466 2.1557 2.1836l-2.7373 0.31642 2.4258 2.25c1.3342 1.2375 3.1562 2.25 4.0487 2.25 2.785 0 6.2254 3.9656 5.6005 6.4555-0.4205 1.6754 0.059 2.5596 1.9318 3.5618 1.7006 0.91015 2.313 1.8946 1.9297 3.1023-0.37575 1.1839 0.28194 2.3217 1.9882 3.4397 1.4024 0.91886 2.5497 2.1518 2.5497 2.7399 0 1.9311 4.0089 9.3988 6.0252 11.224 1.0861 0.98293 1.9748 2.3164 1.9748 2.9632 0 0.64682 1.125 1.7781 2.5 2.514 2.6476 1.4169 3.3217 3 1.2775 3-0.67237 0-0.22237 0.70052 1 1.5567 1.2224 0.85619 2.2225 2.1455 2.2225 2.8652 0 2.3763 3.8877 6.3051 8.2839 8.3716 2.3807 1.119 4.9208 2.7483 5.6447 3.6206 0.72393 0.87228 2.1753 1.586 3.2252 1.586s2.168 0.675 2.4845 1.5c0.31659 0.825 1.5974 1.5 2.8462 1.5s2.8308 0.675 3.5155 1.5c0.68469 0.825 2.1177 1.5 3.1844 1.5s4.2741 1.0766 7.1276 2.3924c2.8534 1.3158 9.0131 2.9641 13.688 3.6629 4.675 0.69876 8.9275 1.6472 9.45 2.1076 0.5225 0.46043 2.8584 0.83714 5.191 0.83714 2.3325 0 4.5191 0.45 4.859 1 0.33992 0.55 4.754 1.0461 9.809 1.1024 7.8754 0.0877 8.69 0.24469 5.691 1.0967-5.2218 1.4835-11.799 2.0987-13.764 1.2874-0.95502-0.39443-5.1114-0.88118-9.2364-1.0817-4.125-0.2005-9.075-0.78183-11-1.2919-1.925-0.51003-7.775-1.9212-13-3.136s-10.4-2.9975-11.5-3.9615c-1.1-0.96406-3.35-2.071-5-2.4599-1.65-0.38888-5.0298-1.9525-7.5106-3.4747s-6.0808-3.2889-8-3.926c-3.918-1.3007-10.317-6.8164-9.4792-8.1713 0.29994-0.48533-0.81716-1.8898-2.4824-3.121-1.67-1.23-3.03-3-3.03-3.93 0-1.4965-5.1817-10.962-7.7819-14.215-0.53534-0.66981-1.3083-2.3428-1.7177-3.7178-0.40941-1.375-2.2645-4.3757-4.1224-6.6683-1.86-2.29-3.38-4.55-3.38-5.02 0-0.46943-2.0696-3.0937-4.599-5.8317-2.5295-2.738-5.4854-6.0907-6.5686-7.4503-2.15-2.71-12.48-10.03-14.14-10.03-0.56996 0-1.7467-0.59774-2.615-1.3283-2.2305-1.8767-11.801-4.7155-13.587-4.0302-2.2479 0.86259-1.7908 3.3585 0.6151 3.3585 8.398 0 32.767 20.946 32.918 28.294 0.0136 0.66307 1.5846 3.3316 3.4911 5.93s6.2828 10.227 9.7252 16.952c15.779 30.827 39.126 42.114 92.403 44.673 1.7292 0.0831 7.7117-0.31773 13.294-0.89062zm-66.5-32.87c-10.51-7.43-15.22-14.71-20.46-31.59-4.49-14.47-20.66-38.5-25.91-38.5-0.59 0-1.07-0.47-1.07-1.04 0-2.2242 7.0074 2.925 14.51 10.662 4.5956 4.7393 12.543 19.274 14.968 27.373 5.1398 17.17 14.562 31 21.12 31 1.4773 0 6.4021 4.2833 6.4021 5.5681 0 2.4632-2.3783 1.5978-9.5564-3.4777zm-53.94-74.2c-1.65-1.0817-3.6712-2.3651-4.4917-2.8519-0.82042-0.48681-1.1956-1.1812-0.83372-1.543 0.36187-0.36188 3.0521 0.95437 5.9783 2.925s4.6514 3.5501 3.8337 3.5098c-0.81766-0.0402-2.8366-0.95815-4.4866-2.0399zm265.5 99.61c0-2.4712-1.355-3.3527-2.4442-1.5902-0.73 1.17 0.38 4.09 1.55 4.09 0.49 0 0.89-1.12 0.89-2.5zm-19-7c0-1.925-0.44143-3.5-0.98095-3.5-1.24 0-2.4255 4.5334-1.5542 5.9432 1.32 2.14 2.54 0.97 2.54-2.44zm-17.688-0.78919c-0.1421-2.046 0.2691-2.7108 1.6767-2.7108 2.064 0 2.771-2.0546 2.1678-6.3-0.5842-4.1116-3.5617-3.1737-3.9842 1.2551-0.18042 1.8912-0.93524 3.9126-1.6774 4.4918-1.2046 0.94016-1.9298 3.5879-1.6097 5.8765 0.32949 2.3558 3.5988-0.13658 3.4269-2.6125zm-66.395 0.66106c0.22916-0.20453-2.6958-0.34024-6.5-0.30158-4.841 0.0492-6.3165 0.33168-4.9167 0.94133 1.789 0.77917 10.365 0.29858 11.417-0.63975zm77.044-1.8239c1.4166-1.7069 0.40384-5.8331-1.295-5.276-1.4012 0.45945-2.194 6.728-0.85094 6.728 0.5175 0 1.4832-0.65341 2.146-1.452zm-74.632-4.5912c3.17-2.5 7.17-7.96 5.83-7.96-0.53542 0-2.9286 1.6397-5.3181 3.6437-2.3895 2.0041-5.6946 4.2364-7.3446 4.9609l-3 1.3171 3.6151 0.0391c2.1756 0.0236 4.6495-0.77446 6.2127-2.0041zm79.495-3.6239c-0.48-2.52-2.82-2.86-2.82-0.42 0 1.22 0.65 2.08 1.57 2.08 0.93124 0 1.4414-0.68037 1.25-1.6671zm16.932 0.41713c-0.22642-0.6875-1.4799-1.4057-2.7855-1.596-2.0725-0.30212-2.2057-0.14347-1.0492 1.25 1.5661 1.887 4.4272 2.1452 3.8347 0.34604zm-23.415-5.6617c-0.88-3.69-1.22-4.1-3.4-4.1-2.1656 0-2.3689 0.8358-1.0223 4.203 0.50525 1.2634 1.2124 3.197 1.5714 4.297 1.0266 3.1454 3.6743-0.95293 2.8501-4.4117zm-70.595-1.4099c13.364-8.9707 18.525-51.045 8.7306-71.169l-2.438-5.009 0.23114 6.5 0.23114 6.5h-2.9823c-3.3303 0-9.6708 10.729-10.842 18.346-0.30904 2.01-1.0502 6.4845-1.647 9.9433-1.8461 10.7 1.275 18.211 7.5671 18.211 1.8073 0 3.5635 0.44908 3.9028 0.99795 0.64336 1.041-2.4265 7.002-3.6059 7.002-0.37179 0-0.96284 1.1429-1.3134 2.5399-0.57404 2.2872-0.98326 2.475-4.1128 1.8879-3.7549-0.70441-8.4665 1.4896-8.4665 3.9425 0 3.9281 9.0701 4.1177 14.745 0.30813zm-3.3006-23.143c-5.9586-5.9586 1.0698-20.667 8.5301-17.851 3.8538 1.4546 4.2825-0.81451 0.60869-3.2217-2.0143-1.3198-2.7595-1.3694-4.475-0.29809-1.4728 0.91978-2.3652 0.97846-3.1374 0.20629-1.3668-1.3668 3.4679-13.941 5.6878-14.793 0.82968-0.31838 1.3389-0.24106 1.1316 0.17181-5.24 10.42-5.36 12.24-0.8 12.24 7.1736 0 9.6109 13.697 3.9962 22.457-2.1526 3.3587-2.464 2.7042-1.0536-2.214 1.2473-4.349 0.10065-4.0503-2.8563 0.7441-3.1174 5.0545-4.6208 5.5565-7.6294 2.5479zm-244.06 22.419c1.6387-1.5229-0.24941-3.824-3.9836-4.8551-4.44-1.24-5.4-0.79-5.4 2.48 0 3.8029 6.1634 5.3554 9.3828 2.3636zm335.62 0.09c0-2.3987-1.1546-3.1995-2.9834-2.0692-1.1478 0.7094-1.1616 1.1305-0.0798 2.434 1.7736 2.1371 3.0632 1.9835 3.0632-0.36476zm-130-1.3809c0-1.1324-3.4238-10.351-4.1329-11.128-1.4551-1.5942-0.98519 3.1144 0.74149 7.4298 1.2683 3.1699 3.3914 5.4851 3.3914 3.6984zm-168-5.48c0-2.64-0.5625-5.3962-1.25-6.125-1-1.06-1-1.4167 0-1.7833 1.75-0.64 1.57-2.29-0.25-2.29-1.5207 0-2.083 3.2025-1.6681 9.5 0.46773 7.0988 3.1681 7.6954 3.1681 0.7zm133.56 2.79c3.2736-1.1055 7.2586-3.1328 8.8557-4.5051 3.43-2.9473 2.977-4.3709-0.5166-1.6232-2.4642 1.9381-8.7851 4.3453-14.786 5.6309-2.4632 0.52773-3.007 0.96304-2 1.6008 1.843 1.1672 1.6474 1.1928 8.4467-1.1034zm161.2-2.24c-0.62425-1.9011-5.393-2.139-6.0971-0.3041-0.47034 1.2257 0.15419 1.5541 2.9556 1.5541 2.3938 0 3.4181-0.40758 3.1415-1.25zm-266.54-1.42c2.97-0.6 6.04-3.33 3.74-3.33-2.54 0-11.96 3.39-11.96 4.3 0 0.51636 1.2296 0.63117 2.75 0.25678 1.5125-0.37245 3.973-0.92386 5.4678-1.2254zm-35.488-11.913 0.41992-5.6724-2.8247 0.69297c-5.3244 1.3062-7.0625 7.5614-2.1011 7.5614 1.4086 0 1.812 0.46484 1.3801 1.5902-0.33562 0.87464-0.33298 2.0388 0.006 2.5871 1.2447 2.014 2.7045-1.1486 3.1199-6.7593zm198.5-18.081c0.2609-21.654 0.0172-24.227-2.1664-22.878-1.8521 1.1446-1.4424 45.77 0.41643 45.364 1.2463-0.27173 1.5256-3.8599 1.75-22.487zm108.09 15.66c2.0451-4.2732 2.1588-5 0.78234-5-1.0032 0-2.0795 1.5025-2.854 3.9842-2.3768 7.6155-1.332 8.1278 2.0717 1.0158zm-300.7 0.43087c-0.3-0.75-0.12-1.62 0.38-1.93 1.0795-0.66717 0.18353-3.5-1.107-3.5-0.49115 0-0.89301 1.8266-0.89301 4.059 0 2.6241 0.37762 3.8256 1.0682 3.3988 0.5875-0.3631 0.83215-1.2752 0.54368-2.027zm229.29-1.18c2.1371-8.1171 3.3222-17.418 2.344-18.396-0.6399-0.6399-1.2208 0.83583-1.6741 4.253-0.3818 2.8781-1.3435 7.7259-2.1372 10.773-1.7053 6.5472-1.7441 7.1198-0.48154 7.1198 0.5288 0 1.4057-1.6875 1.9488-3.75zm-54.91-2.75c0-1.5556-0.56667-2.5-1.5-2.5-2.7941 0-1.7878 3.9618 1.25 4.921 0.1375 0.0434 0.25-1.046 0.25-2.421zm-180-3.4667c0-1.6915-1.6999-1.9866-4.3517-0.75554-2.546 1.182-3.3192 2.7179-2.0215 4.0156 0.8028 0.8028 6.3732-2.0467 6.3732-3.2601zm155.68-1.1956c2.2985-0.58189 5.2235-2.195 6.5-3.5848l2.3209-2.5268-2.5 0.50837c-4.7214 0.9601-20.129 5.7383-21.814 6.7651-2.0905 1.2737 9.2242 0.42522 15.493-1.1618zm-174.87-2.58c-0.27785-3.357-0.57235-3.7152-2.8104-3.4184-3.1563 0.41866-6.1291 3.176-4.1942 3.8902 0.71819 0.26512 1.8432 1.094 2.5 1.8421 2.543 2.8961 4.8382 1.717 4.5046-2.3139zm17.052-0.14348c3.1722-2.0098 1.9698-10.322-1.5342-10.605-3.5254-0.28516-5.8477 3.902-3.1357 5.6538 1.061 0.68535 1.0369 1.0193-0.12771 1.7686-1.1898 0.76557-1.2116 1.1938-0.12755 2.5 1.463 1.7628 2.9049 1.9627 4.9251 0.68274zm147.34-4.0388c1.2634-0.51277 4.997-1.6871 8.297-2.6096 12.633-3.5316 15.551-4.6856 16.545-6.5416 0.72896-1.3621 0.6994-1.9165-0.10215-1.9165-2.1856 0-16.475 5.3667-19.097 7.172-1.4599 1.0054-3.2599 1.8439-4 1.8634-1.7456 0.046-6.7257 2.8825-5.1427 2.9291 0.66162 0.0195 2.2366-0.3841 3.5-0.89687zm-409.93-2.9413c3.2281-3.2281 0.23024-3.6387-19.395-2.6563-23.628 1.1828-65.01 0.95995-73.879-0.39792-7.4011-1.1331-18.65-3.5648-21.25-4.5937-1.1653-0.4611-1.75-0.22265-1.75 0.71362 0 2.7499 15.525 6.5316 32 7.7949 15.045 1.1536 82.953 0.46016 84.274-0.86063zm252.73-3.07c0-1.0675-0.40285-2.19-0.89522-2.4943-1.0746-0.66414-2.3476 2.2332-1.549 3.5255 0.98 1.59 2.44 0.98 2.44-1.03zm-354-5.4424c0-0.76089-1.125-1.5985-2.5-1.8613-2.8821-0.55095-3.577 1.8167-0.75 2.5554 2.9948 0.78263 3.25 0.72812 3.25-0.69409zm511.57-0.22c2.7105-0.87781 6.2781-2.1849 7.9281-2.9047 1.65-0.71977 4.575-1.7743 6.5-2.3434 5.7968-1.7137 10.916-3.7341 11.731-4.6299 0.42277-0.46457-0.0954-0.53273-1.1514-0.15146-1.056 0.38126-3.8118 1.1172-6.124 1.6353-2.3121 0.51815-7.7378 2.3029-12.057 3.9661-4.3193 1.6632-8.426 3.024-9.126 3.024-0.70005 0-1.2728 0.417-1.2728 0.92668 0 0.50967-0.7875 1.1325-1.75 1.384-0.9625 0.25153-1.2677 0.50953-0.67814 0.57333 0.58952 0.0638 3.2895-0.6022 6-1.48zm19.43-12.59c5.4534-1.5986 7.2154-2.6483 6.47-3.8544-0.32601-0.52749-1.4895-0.43276-2.7663 0.22523-4.65 2.3964-5.7201 2.8234-7.0758 2.8234-0.7696 0-2.6882 0.70964-4.2636 1.577l-2.8643 1.577 3-0.5145c1.65-0.28297 5.025-1.1081 7.5-1.8336zm-155.29-2.7703c5.7505-3.5063 9.0668-12.326 5.0403-13.405-4.6188-1.2378-5.75-0.78083-5.75 2.3227 0 3.2024-1.7274 7.7622-3.7383 9.8685-3.2498 3.4038-0.41313 4.178 4.448 1.2141zm141.79-5.13c3.4766-1.7006 4.8248-2.7071 3.2056-2.3932-3.9133 0.7586-13.642 5.4204-11.206 5.3697 1.1-0.0229 4.7-1.3623 8-2.9765zm-206.5 0.71982c45.051-0.15262 47.94-0.26952 49.872-2.0178 6.7828-6.1384 4.6578-20.944-3.7483-26.114-0.96301-0.59231-11.41-1.0074-25.626-1.0181-13.2-0.01-42.286-0.39536-64.634-0.85643-44.316-0.91425-48.239-0.60338-59.761 4.7346-7.05 3.271-9.1 5.321-9.1 9.121 0 3.5436 4.2312 8.5724 5.4938 6.5294 0.50403-0.81553 1.1891-0.70203 2.4051 0.39847 5.2811 4.7793 41.224 11.419 53.441 9.8715 2.1121-0.26747 25.36-0.55921 51.662-0.64832zm-53-5.67c-6.325-0.45161-16.406-1.2615-22.403-1.7997-5.9966-0.53821-11.526-0.73952-12.287-0.44734-0.76139 0.29217-2.2229-0.22767-3.2478-1.1552s-2.1175-1.2754-2.428-0.77305c-0.98016 1.5859-8.0782-0.13535-8.4466-2.0483-0.25-1.29 0.33-1.74 2.24-1.74 1.41 0 2.57-0.39 2.57-0.86 0-1.0306 1.3661-1.1181 20.222-1.2961 10.786-0.10178 15.141 0.20886 16.289 1.1618 1.2854 1.0668 3.0644 1.0679 9.8886 0.006 11.207-1.7433 16.055 1.129 7.1136 4.2147l-5.01 1.73 5.5-0.54c3.025-0.29547 7.5042-1.2124 9.9537-2.0376s5.5302-1.2302 6.8458-0.89998c1.3157 0.33022 4.8694-0.11978 7.8973-0.99999 3.0451-0.88523 6.7714-1.3223 8.3387-0.97802 1.5585 0.34229 4.438 0.17934 6.399-0.36211 2.0516-0.56647 3.5655-0.60219 3.5655-0.0841 0 0.49518-1.158 1.191-2.5732 1.5462-1.4173 0.35573-2.1905 1.0285-1.7213 1.4978 0.46926 0.46926 4.6572-0.0606 9.3232-1.1796 13.347-3.2008 41.93-2.6588 43.458 0.82406 0.54292 1.2375 1.357 2.25 1.809 2.25 0.45203 0 0.54377 0.45 0.20385 1s-1.6265 1-2.859 1-2.746 0.50504-3.3633 1.1223c-1.3895 1.3895-80.057 2.0656-97.278 0.83605zm73.774-3.6782c1.8009-0.30234 3.5587-1.0099 3.9064-1.5724 0.40572-0.65647-0.2297-0.7686-1.7743-0.3131-1.3235 0.39031-4.0846 0.9692-6.1357 1.2864-2.0512 0.31723-3.4681 0.99945-3.1488 1.516 0.31927 0.5166 1.3225 0.64531 2.2294 0.28603 0.90687-0.35929 3.1223-0.90062 4.9231-1.203zm194.93-1.4455c2.1001-0.86393 2.3768-1.2494 1.1142-1.5518-0.92397-0.22135-3.399 0.54574-5.5 1.7046-4.1834 2.3074-1.3553 2.2089 4.3858-0.15277zm-7.4481-2.6432c2.6168-0.99382 5.2943-2.3434 5.95-2.9992 2.1844-2.1844-1.7493-1.3515-8.3977 1.778-6.903 3.2494-5.1697 4.1142 2.4477 1.2212zm-139.83-1.3033c-0.3067-0.49625 0.14589-1.1722 1.0058-1.5022 2.4908-0.95581 1.0216-6.7216-2.8163-11.052-0.61618-0.69531-1.7006-1.9548-2.4098-2.7989-1.4396-1.7134-4.9389-1.9921-7.1844-0.57206-1.2554 0.79388-1.1606 1.2733 0.63896 3.2347 2.2894 2.4952 6.3348 10.418 6.3348 12.407 0 0.67586 0.5625 1.425 1.25 1.6649 1.754 0.61182 3.8501-0.29837 3.1809-1.3812zm116.33 0.10597c0.95504-0.55324 5.7727-2.5371 10.706-4.4086 8.77-3.33 11.84-5.59 7.59-5.59-2.7462 0-8.9652 2.6122-11.344 4.7648-1.0262 0.92869-4.1927 2.6935-7.0366 3.9217-2.844 1.2282-4.3772 2.2512-3.4072 2.2733 0.96996 0.0221 2.545-0.41249 3.5-0.96572zm17.703-2.3228c3.8315-1.358 7.1316-2.965 7.3336-3.5709 0.47493-1.4248-1.1983-0.87687-12.8 4.1913-1.925 0.84095-4.175 1.7964-5 2.1232-4.1573 1.6469 4.4306-0.60431 10.466-2.7436zm38.574-1.8341c5.5753-5.8609 3.328-7.1032-10.807-5.9741l-4.546 0.36314 5.4064 4.8436c6.5175 5.839 5.2174 5.7387 9.9465 0.76739zm-56.194-1.2477c1.4599-0.77575 4.3227-2.1378 6.3618-3.0268 3.28-1.431 5.9-3.57 4.38-3.57-1.4877 0-14.258 5.4616-15.534 6.6438-2.0618 1.9097 1.183 1.8731 4.81-0.0542zm72.17-2.1l2.5-1.4291-2.5-0.004c-1.375-0.002-3.3735 0.65706-4.4411 1.4646-2.7372 2.0703 0.80829 2.0449 4.4411-0.0318zm-73.5-2.9639c2.9264-1.34 2.9386-1.3749 0.5-1.4231-1.375-0.02718-3.3735 0.61127-4.4411 1.4188-2.5127 1.9005-0.20552 1.903 3.9411 0.0043zm-22-0.55836c1.5686-0.69152 1.1373-0.87413-2-0.84668-2.2 0.01925-5.35-0.28376-7-0.67336-2.0674-0.48815-2.6891-0.38485-2 0.33228 1.7913 1.8641 7.9558 2.5298 11 1.1878zm-419-14.478c0-0.55-1.6875-1.1397-3.75-1.3104-3.5167-0.29105-4.6791 0.54791-3.0359 2.1911 1.05 1.041 6.79 0.296 6.79-0.881zm236.5-5.375c0-1.2708-5.5076-2.1735-9-1.475-5.0506 1.0101-3.3401 2.35 3 2.35 3.3 0 6-0.39375 6-0.875zm21-1.625c0-1.6739-0.57826-2.535-1.75-2.606-9.0621-0.54871-12.595 2.3328-5.0508 4.1195 5.88 1.392 6.8 1.187 6.8-1.514zm23.5 0.51274c0-1.0529-2.0305-1.8553-6.9526-2.7474-7.4873-1.357-9.1689-0.79907-8.0659 2.6761 0.86662 2.7305 15.019 2.7976 15.019 0.07122zm-282.08-3.62c5.79-2.222 0.01-6.393-8.85-6.393-10.472 0-9.7177 4.1385 1.0842 5.951 2.6676 0.44759 5.1508 0.86673 5.5183 0.93142 0.36752 0.06469 1.38-0.15553 2.25-0.48937zm307.58-9.118c-4.6647-1.7624-13.013-13.334-14.462-20.046-0.45794-2.1214-2.2299-4.5442-5.0436-6.8962-5.349-4.4712-5.7832-5.9907-3.2828-11.489 2.3-5.049 5.79-15.53 5.79-17.371 0-4.2616 10.16-8.9574 14-6.473 1.1642 0.75239 0.86971 0.9728-1.3157 0.98469-4.85 0.0264-10.68 4.3636-10.68 7.9463 0 0.89347-0.70383 2.6293-1.5641 3.8575-3.889 5.5524 3.9309 8.2796 14.586 5.0872 3.4948-1.0471 4.0846-0.89763 8.5315 2.1619 4.0964 2.8184 5.6719 3.2993 11.058 3.3748 5.0939 0.07148 6.3676 0.41881 6.7409 1.8381 0.55986 2.1287 3.6475 2.3475 3.6475 0.25847 0-0.82034-0.9-2.0536-2-2.7405-4.3451-2.7135-1.7496-4.7638 3.5026-2.7669 2.2817 0.86751 2.5634 0.7675 2.1126-0.75-0.28612-0.96304-0.81415-2.9836-1.1734-4.4902-0.9-3.767-6.25-8.2072-12.34-10.228-2.79-0.9277-5.33-2.1025-5.65-2.6105-0.76-1.2375-5.12-1.1729-7.52 0.1117-1.09 0.5836-1.93 0.6345-1.93 0.1166 0-0.5052-1.0125-1.2448-2.25-1.6436-2.1386-0.68915-2.1014-0.76335 0.75-1.4983 4.38-1.129 9.5-1.1571 9.5-0.052237 0 0.52671 3.1592 1.8985 7.0203 3.0484 11.198 3.335 16.037 8.8161 15.489 17.545-0.1364 2.1719 0.36821 4.8366 1.1214 5.9214 2.8157 4.0559 0.85577 8.2221-5.3806 11.438-1.2375 0.63808-2.25 1.5943-2.25 2.125 0 0.53065-0.93479 1.8996-2.0773 3.0421s-1.8316 2.7175-1.5314 3.5c0.3 0.783 0.11 1.423-0.42 1.423-0.53274 0-0.98357 0.7875-1.0018 1.75-0.16 8.128-13.88 16.58-21.97 13.525zm1.8094-8.9583c0.22782-1.5922-0.27895-2.2488-1.9217-2.4898-1.2271-0.18004-2.4085-0.86636-2.6254-1.5252-0.28152-0.85531 0.69691-1.0293 3.4217-0.60846 4.6015 0.7107 4.5519 0.6737 4.7224 3.5246 0.31396 5.2512 8.38 0.87027 11.449-6.2184 4.5649-10.544 4.8456-13 1.7865-15.632-2.8-2.411-11.64-3.501-11.64-1.435 0 0.51321 1.2566 0.89739 2.7924 0.85372 4.2201-0.11999 7.6419 1.9849 6.1497 3.7829-1.64 1.975-3.58 1.789-5.94-0.57-1.1-1.1-2.9562-2-4.125-2-1.782 0-2.0381-0.4439-1.5868-2.75 0.40826-2.0861-0.0111-3.1586-1.7369-4.4425-3.8361-2.8538-8.6167-0.27291-5.4185 2.9253 0.62303 0.62303 0.88135 1.788 0.57404 2.5888-0.91886 2.3945-7.1273 0.65512-7.5264-2.1087-0.25-1.708-0.99-2.213-3.25-2.213-3.2208 0-3.7431 1.3302-1.4304 3.6429 0.825 0.825 1.5068 2.7054 1.5151 4.1786 0.0603 10.733 13.523 29.384 14.794 20.496zm3.69-6.898c-1.1-0.17-4.56-0.588-7.69-0.929-5.77-0.628-7.67-3.49-2.32-3.49 1.4354 0 2.4696-0.7389 2.7994-2 0.30421-1.1633 1.364-2 2.5333-2 1.1056 0 2.1924-0.54637 2.415-1.2142 0.2226-0.66779 1.045 0.23221 1.8274 2 0.78 1.768 2.12 3.214 2.97 3.214 1.9 0 3.96 1.929 3.96 3.7 0 1.2271-1.8701 1.4338-6.5 0.71872zm19.464-7.8749c0.66469-0.80091 0.90159-1.9528 0.52644-2.5598-0.6601-1.0681-3.3836 1.504-3.4583 3.266-0.053 1.2508 1.6477 0.8411 2.9318-0.7062zm7.835-6.1428c0.16427-0.09073-0.00005-1.3552-0.36516-2.8098-0.89-3.55-3.43-1.586-3.43 2.654 0 2.7008 0.17456 2.8664 1.75 1.6605 0.9625-0.73671 1.8844-1.4137 2.0487-1.5044zm-50.8-4.401c0-4.873-1.3995-5.8639-2.9603-2.0959-0.93864 2.2661-0.92075 3.3136 0.0841 4.9226 1.78 2.841 2.88 1.758 2.88-2.827zm31.021-8.116c-6.83-2.724-8.3-7.865-2.27-7.916l3.75-0.0316-2.86-2.5151-2.86-2.5151 2.86 0.63998c1.573 0.35199 4.7857 1.948 7.1392 3.5467 2.35 1.599 4.72 2.907 5.25 2.907s0.97 1 0.97 2.223v2.2225l-1.5567-2.2225c-2.0774-2.9659-3.6322-2.8231-2.8577 0.26246 0.52613 2.0963-2.8433 5.1569-4.9007 4.4516-0.10169-0.03486-1.3006-0.50856-2.6643-1.0526zm-25.807-3.0006c-5.8546-2.1658 2.6511-8.9593 9.1691-7.3234 2.1597 0.54204 2.5272 0.36952 2.0214-0.94874-0.76753-2.0001 0.26943-2.0804 2.181-0.16874 1.1417 1.1417 1.179 1.6109 0.17857 2.25-0.69517 0.44412-1.7587 1.7007-2.3633 2.7923-1.3858 2.5018-8.0983 4.5411-11.187 3.3986z"/>
</svg>
